<?xml version="1.0" encoding="utf-8"?>
<!-- Generator: Adobe Illustrator 24.1.0, SVG Export Plug-In . SVG Version: 6.00 Build 0)  -->
<svg version="1.1" id="Capa_1" xmlns="http://www.w3.org/2000/svg" xmlns:xlink="http://www.w3.org/1999/xlink" x="0px" y="0px"
	 viewBox="0 0 25 25" style="enable-background:new 0 0 25 25;" xml:space="preserve">
<style type="text/css">
	.st0{fill:#821810;}
</style>
<g>
	<path class="st0" d="M10.48,18.93c0.1,1.06,0.44,2.09,1,3c0.02,0.04,0.06,0.05,0.09,0.04s0.05-0.06,0.04-0.09
		c0-0.01-0.01-0.01-0.01-0.01c-0.55-0.88-0.89-1.87-1-2.9c0-0.04-0.03-0.07-0.07-0.07c-0.04,0-0.07,0.03-0.07,0.07l0,0L10.48,18.93z
		"/>
	<path class="st0" d="M9.55,20.71c-0.27,0.72-0.33,1.79,0.5,2.15c0.08,0,0.15-0.09,0.07-0.12c-0.77-0.34-0.68-1.33-0.43-2
		c0-0.09-0.1-0.12-0.14,0L9.55,20.71z"/>
	<path class="st0" d="M14.78,19.07c-0.11,1.01-0.42,1.98-0.93,2.86c-0.02,0.03-0.02,0.07,0.01,0.1c0.03,0.02,0.07,0.02,0.1-0.01
		c0,0,0.01-0.01,0.01-0.01c0.52-0.9,0.84-1.9,0.94-2.93C14.91,18.98,14.79,18.94,14.78,19.07z"/>
	<path class="st0" d="M15.7,20.92c0.37,0.64,0.2,1.46-0.39,1.91c-0.07,0,0,0.17,0.07,0.12c0.66-0.49,0.85-1.39,0.44-2.1
		C15.82,20.77,15.66,20.85,15.7,20.92z"/>
	<path class="st0" d="M6.98,17.49c-0.16,0.31-0.23,0.65-0.22,1c0.09,0.94,0.53,1.82,1.24,2.45c0.06,0.07,0.16,0,0.1-0.1
		c-0.69-0.62-1.12-1.48-1.2-2.4c-0.01-0.32,0.06-0.64,0.2-0.92c0.02-0.03,0.02-0.07-0.01-0.1s-0.07-0.02-0.1,0.01
		c0,0-0.01,0.01-0.01,0.01L6.98,17.49z"/>
	<path class="st0" d="M6.17,17.14c-0.28,0.35-0.48,0.76-0.58,1.2c-0.21,0.86,0.01,1.77,0.58,2.44c0,0.07,0.15,0,0.09-0.1
		c-0.56-0.68-0.75-1.59-0.5-2.43c0.1-0.36,0.27-0.7,0.5-1c0.06-0.07,0-0.17-0.09-0.1V17.14z"/>
	<path class="st0" d="M4.67,17.9c-0.93,1.14-1.04,2.75-0.26,4c0,0.07,0.17,0,0.12-0.07c-0.74-1.2-0.64-2.74,0.24-3.84
		C4.77,17.93,4.72,17.83,4.67,17.9z"/>
	<path class="st0" d="M3.89,19.24c-0.38,0.53-0.48,1.21-0.27,1.83c0,0.08,0.16,0,0.13,0c-0.2-0.56-0.11-1.19,0.24-1.67
		c0.06-0.07,0-0.17-0.1-0.1L3.89,19.24z"/>
	<path class="st0" d="M4.49,15.2c-1.14,0.66-1.84,1.88-1.85,3.2c0,0.78,0.17,1.55,0.48,2.27c0,0.08,0.17,0,0.14,0
		c-0.66-1.3-0.63-2.84,0.06-4.12c0.3-0.5,0.73-0.91,1.24-1.19c0.08,0,0-0.17-0.08-0.13L4.49,15.2z"/>
	<path class="st0" d="M2.43,15.75c-0.14,0.17-0.27,0.35-0.39,0.53c-0.18,0.22-0.3,0.49-0.33,0.78c0,0.09,0.14,0.09,0.13,0
		c0.05-0.28,0.17-0.54,0.35-0.76c0.11-0.15,0.22-0.31,0.34-0.46S2.53,15.68,2.43,15.75z"/>
	<path class="st0" d="M18.02,18.07c0.13,0.29,0.18,0.6,0.16,0.91c-0.09,0.91-0.5,1.76-1.16,2.39c-0.06,0.06,0,0.16,0.1,0.1
		c0.67-0.65,1.09-1.51,1.2-2.44c0.03-0.34-0.03-0.69-0.18-1c0-0.08-0.16,0-0.12,0.07V18.07z"/>
	<path class="st0" d="M18.84,17.67c0.83,1,0.83,2.45,0,3.45c-0.06,0.07,0.07,0.14,0.12,0.07c0.57-0.7,0.78-1.62,0.56-2.5
		c-0.1-0.41-0.3-0.79-0.57-1.11c-0.06-0.07-0.16,0-0.1,0.09H18.84z"/>
	<path class="st0" d="M20.29,18.41c0.28,0.32,0.5,0.69,0.64,1.1c0.32,0.93,0.2,1.95-0.34,2.77c-0.02,0.03-0.02,0.07,0.01,0.1
		c0.03,0.02,0.07,0.02,0.1-0.01c0,0,0.01-0.01,0.01-0.01c0.81-1.25,0.68-2.89-0.32-4c-0.06-0.07-0.16,0-0.1,0.09V18.41z"/>
	<path class="st0" d="M21.06,19.62c0.36,0.54,0.48,1.2,0.33,1.83c0,0.09,0.12,0.13,0.14,0c0.15-0.67,0.02-1.37-0.35-1.94
		c-0.06-0.07-0.18,0-0.12,0.07L21.06,19.62z"/>
	<path class="st0" d="M20.57,15.77c0.48,0.27,0.88,0.66,1.16,1.14c0.67,1.29,0.73,2.82,0.15,4.16c0,0.09,0.1,0.12,0.13,0
		c0.46-1.14,0.52-2.4,0.16-3.57c-0.23-0.64-0.64-1.2-1.18-1.62c-0.11-0.09-0.22-0.18-0.35-0.24C20.56,15.64,20.49,15.72,20.57,15.77
		L20.57,15.77z"/>
	<path class="st0" d="M22.43,16.29c0.34,0.27,0.58,0.65,0.69,1.07c0.01,0.04,0.06,0.05,0.09,0.04c0.02-0.01,0.03-0.02,0.04-0.04
		c-0.12-0.45-0.38-0.85-0.75-1.14c-0.07-0.06-0.17,0-0.1,0.1L22.43,16.29z"/>
	<path class="st0" d="M23.45,11.46l0.85-0.11c0.09,0,0.09-0.15,0-0.14l-0.85,0.11C23.37,11.32,23.37,11.47,23.45,11.46z"/>
	<path class="st0" d="M22.9,10.7c0.35-0.39,0.87-0.56,1.38-0.46c0.09,0,0.13-0.12,0-0.13c-0.56-0.12-1.14,0.07-1.52,0.49
		c-0.06,0.07,0,0.16,0.1,0.1H22.9z"/>
	<path class="st0" d="M21.76,9.68c0.3-0.52,0.78-0.9,1.36-1.06c0.09,0,0.05-0.15,0-0.13c-0.6,0.18-1.1,0.58-1.41,1.12
		c-0.05,0.07,0.07,0.14,0.13,0.07H21.76z"/>
	<path class="st0" d="M20.36,8.14c0.43-0.34,1.05-0.34,1.48,0c0.07,0,0.14-0.07,0.07-0.12c-0.48-0.39-1.17-0.39-1.65,0
		c-0.06,0.06,0,0.16,0.1,0.1V8.14z"/>
	<path class="st0" d="M20.43,7.07c0.83-0.9,2.15-1.16,3.25-0.63c0.08,0,0.15-0.08,0.07-0.12c-1.16-0.56-2.55-0.3-3.42,0.65
		C20.27,7.03,20.33,7.13,20.43,7.07z"/>
	<path class="st0" d="M19.46,7.15l1.35-1.54c0.06-0.07,0-0.17-0.1-0.1l-1.35,1.56c0,0.07,0,0.17,0.1,0.1V7.15z"/>
	<path class="st0" d="M3.34,9.22c-0.26-0.58-0.78-1-1.4-1.15c-0.08,0-0.12,0.12,0,0.14c0.56,0.12,1.04,0.49,1.3,1
		c0,0.08,0.16,0,0.13,0L3.34,9.22z"/>
	<path class="st0" d="M4.74,7.67c-0.41-0.53-1.16-0.31-1.64,0c-0.08,0,0,0.16,0.07,0.12c0.41-0.25,1.11-0.47,1.45,0
		c0,0.07,0.17,0,0.12-0.07V7.67z"/>
	<path class="st0" d="M4.69,6.55C3.8,5.64,2.42,5.39,1.27,5.93c-0.08,0,0,0.16,0.07,0.12c1.1-0.53,2.41-0.28,3.25,0.6
		C4.66,6.71,4.75,6.65,4.69,6.55z"/>
	<path class="st0" d="M5.6,6.63L4.31,5.07c-0.06-0.07-0.16,0-0.1,0.1L5.5,6.73C5.56,6.8,5.66,6.73,5.6,6.63z"/>
	<path class="st0" d="M6.84,6.07C6.67,5.83,6.48,5.6,6.29,5.38C6.05,5.06,5.73,4.81,5.36,4.66c-0.09,0-0.13,0.11,0,0.13
		C5.73,4.95,6.04,5.2,6.27,5.52c0.17,0.2,0.34,0.4,0.49,0.62c0.05,0.07,0.18,0,0.12-0.07L6.84,6.07z"/>
	<path class="st0" d="M14.12,5.74c0.12,0.48,0.1,0.98-0.08,1.44c0,0.08,0.1,0.12,0.13,0c0.18-0.48,0.22-1,0.09-1.5
		c0-0.04-0.03-0.07-0.07-0.07c-0.04,0-0.07,0.03-0.07,0.07V5.74z"/>
	<path class="st0" d="M13.53,5.55c0.23,0.49,0.23,1.05,0,1.54c0,0.09,0.1,0.12,0.13,0c0.23-0.53,0.21-1.13-0.05-1.65
		c0-0.07-0.18,0-0.12,0.07L13.53,5.55z"/>
	<path class="st0" d="M12.99,5.4c0.19,0.3,0.24,0.67,0.12,1c0,0.09,0.12,0.12,0.13,0c0.13-0.37,0.09-0.77-0.12-1.1
		c-0.06-0.06-0.16,0-0.1,0.1H12.99z"/>
	<path class="st0" d="M12.25,5.93c0.48,0.17,0.61,0.87,0.63,1.3c0,0.09,0.15,0.09,0.14,0c0-0.51-0.19-1.23-0.74-1.44
		c-0.08,0-0.12,0.1,0,0.14H12.25z"/>
	<path class="st0" d="M3.85,14.37c-0.03-0.38,0.04-0.76,0.2-1.1c0.43-0.75,1.33-1.08,2.15-0.8c0,0,0.11-0.05,0.08-0.1
		c-0.23-0.36-0.36-0.78-0.37-1.21c-0.02-1.09,0.97-1.74,1.92-2.09c0.09,0,0-0.16,0-0.13c-1,0.32-2,0.94-2,2.07
		C5.79,11.51,5.89,12,6.12,12.44l0.08-0.1c-0.82-0.26-1.71,0.03-2.22,0.73c-0.21,0.39-0.3,0.83-0.27,1.27c0,0.09,0.15,0.09,0.14,0
		V14.37z"/>
	<path class="st0" d="M21.33,14.75c0-0.46-0.13-0.9-0.35-1.3c-0.47-0.72-1.37-1.03-2.19-0.75l0.07,0.1
		c0.23-0.33,0.36-0.73,0.38-1.13c0.01-0.85-0.47-1.63-1.24-2c-0.07,0-0.15,0.07-0.07,0.12c0.76,0.35,1.24,1.14,1.19,1.98
		c-0.03,0.36-0.16,0.7-0.36,1c-0.02,0.03,0,0.08,0.03,0.09c0.02,0.01,0.03,0.01,0.05,0.01c0.8-0.28,1.69,0.06,2.1,0.8
		c0.17,0.35,0.27,0.73,0.27,1.12c0,0.04,0.03,0.07,0.07,0.07c0.04,0,0.07-0.03,0.07-0.07L21.33,14.75z"/>
	<path class="st0" d="M12.23,12.69c0.41-0.14,0.87-0.08,1.23,0.18c0.03,0.02,0.07,0.02,0.1-0.01c0.02-0.03,0.02-0.07-0.01-0.1
		c0,0-0.01-0.01-0.01-0.01c-0.39-0.28-0.89-0.35-1.34-0.19c-0.08,0-0.05,0.16,0,0.13L12.23,12.69z"/>
	<path class="st0" d="M8.05,4.83c0.51-0.31,1.14-0.35,1.69-0.1c0.07,0,0.15-0.05,0.09-0.11C9.39,4.21,8.76,4.08,8.2,4.3
		c-0.09,0-0.05,0.17,0,0.13c0.51-0.2,1.1-0.09,1.5,0.29l0.08-0.11C9.19,4.35,8.51,4.38,7.95,4.7c-0.07,0.05,0,0.18,0.07,0.13
		L8.05,4.83z"/>
	<path class="st0" d="M18.85,4.6c-0.57-0.24-1.21-0.24-1.78,0l0.07,0.12c0.37-0.29,1-0.59,1.46-0.3c0.03,0.02,0.07,0.02,0.1-0.01
		c0.02-0.03,0.02-0.07-0.01-0.1c0,0-0.01-0.01-0.01-0.01c-0.56-0.23-1.2-0.11-1.63,0.32c-0.06,0,0,0.14,0.07,0.12
		c0.53-0.23,1.14-0.23,1.67,0c0.08,0,0.15-0.08,0.07-0.12V4.6z"/>
	<path class="st0" d="M16.92,4.63c0.32-0.58,0.82-1.04,1.43-1.3l0.26-0.11c0,0,0.21-0.08,0.14-0.1s0,0.06,0.05,0.08
		c0.09,0.14,0.16,0.3,0.21,0.46c0.22,0.49,0.26,1.04,0.11,1.55c0,0.09,0.11,0.13,0.14,0c0.17-0.74,0.03-1.51-0.39-2.14
		c-0.02-0.02-0.06-0.02-0.08,0c-0.85,0.22-1.57,0.78-2,1.54c0,0.08,0.08,0.15,0.12,0.07L16.92,4.63z"/>
	<path class="st0" d="M20.01,4.79c-0.1-0.42-0.24-0.84-0.41-1.24c-0.16-0.58-0.51-1.08-1-1.43c-0.56-0.28-1.19,0.19-1.6,0.54
		c-0.27,0.25-0.52,0.52-0.76,0.8c-0.15,0.14-0.28,0.31-0.38,0.49c0,0,0.07,0,0,0c-0.05-0.01-0.09-0.01-0.14,0
		c-0.16-0.04-0.32-0.06-0.48-0.07c-0.4-0.05-0.8,0.06-1.12,0.29c-0.07,0.06,0,0.16,0.1,0.1c0.49-0.33,1.1-0.4,1.65-0.2
		c0.02,0.02,0.06,0.02,0.08,0c0.45-0.76,1.11-1.38,1.89-1.8c1-0.42,1.51,1,1.77,1.69c0.1,0.29,0.19,0.57,0.27,0.87
		c0,0.08,0.15,0.05,0.13,0V4.79z"/>
	<path class="st0" d="M15.25,2.71c-0.75,0.21-1.35,0.78-1.6,1.52c0,0.09,0.1,0.12,0.13,0c0.24-0.68,0.81-1.2,1.51-1.38
		c0.09,0,0.05-0.15,0-0.14H15.25z"/>
	<path class="st0" d="M13.44,3.07c-0.42,0.29-0.66,0.76-0.66,1.27c0,0.04,0.03,0.07,0.07,0.07c0.04,0,0.07-0.03,0.07-0.07
		c0-0.46,0.22-0.89,0.59-1.15C13.58,3.14,13.51,3.02,13.44,3.07z"/>
	<path class="st0" d="M11.51,2.89c0.5,0.04,0.97,0.29,1.29,0.68c0.06,0.07,0.15,0,0.1-0.1c-0.35-0.42-0.85-0.68-1.39-0.72
		C11.42,2.75,11.42,2.88,11.51,2.89z"/>
	<path class="st0" d="M12.05,3.86c-0.27-0.03-0.55-0.03-0.82,0c0,0-0.37,0.07-0.27,0.12c0.1,0.05-0.08-0.11-0.11-0.14
		c-0.38-0.48-0.81-0.93-1.27-1.33c-0.32-0.26-0.79-0.65-1.2-0.38c-0.44,0.37-0.79,0.85-1,1.39c-0.21,0.44-0.4,0.88-0.57,1.34
		c0,0.08,0.1,0.12,0.13,0C7.21,4.13,7.57,3.43,8,2.77c0.22-0.33,0.5-0.72,0.94-0.53c0.45,0.26,0.86,0.6,1.19,1
		c0.26,0.27,0.5,0.55,0.74,0.85c0.02,0.01,0.06,0.01,0.08,0c0.35-0.13,0.73-0.16,1.1-0.09C12.13,4,12.13,3.87,12.05,3.86z"/>
	<path class="st0" d="M10.06,4.56C9.91,4.31,9.73,4.08,9.52,3.87C9.34,3.69,9.15,3.54,8.93,3.41C8.77,3.32,8.4,3.1,8.22,3.16
		s-0.13,0.1-0.17,0.17c-0.13,0.16-0.24,0.32-0.34,0.5C7.44,4.26,7.38,4.78,7.53,5.25c0,0.08,0.17,0,0.14,0
		C7.52,4.79,7.59,4.29,7.86,3.89c0.09-0.16,0.2-0.31,0.31-0.45c0.09-0.12,0.07-0.11,0.21-0.07C9.04,3.6,9.6,4.06,9.94,4.67
		C9.95,4.71,10,4.73,10.03,4.71s0.05-0.06,0.04-0.09c0-0.01-0.01-0.01-0.01-0.01V4.56z"/>
	<path class="st0" d="M6.68,4.94C6.92,5.05,7.16,5.16,7.4,5.3c0.14,0.06,0.27,0.16,0.38,0.27c0.11,0.15,0.2,0.32,0.26,0.5
		c0,0.09,0.17,0,0.14,0C8.1,5.75,7.9,5.46,7.62,5.27C7.34,5.1,7.05,4.95,6.75,4.82C6.67,4.82,6.6,4.9,6.68,4.94z"/>
	<path class="st0" d="M20.17,4.74c-0.69,0.15-1.26,0.66-1.48,1.33c-0.01,0.04,0,0.08,0.04,0.09s0.08,0,0.09-0.04
		c0.01-0.02,0.01-0.04,0-0.05c0.22-0.62,0.75-1.07,1.39-1.2c0.08,0,0.05-0.15,0-0.13H20.17z"/>
	<path class="st0" d="M11.46,17.82c0.24,0.68,1,0.53,1.46,0.23c0.04-0.02,0.05-0.06,0.04-0.09c-0.02-0.04-0.06-0.05-0.09-0.04
		c-0.01,0-0.01,0.01-0.01,0.01c-0.39,0.25-1.05,0.44-1.25-0.14c0-0.09-0.17-0.05-0.14,0V17.82z"/>
	<path class="st0" d="M22.98,12.57c-0.3,0,0.32,0.83,0.35,0.87c0.31,0.34,0.57,0.71,0.79,1.11c0.22,0.66,0.18,1.38-0.13,2
		c0,0.08,0.08,0.15,0.12,0.07c0.41-0.76,0.41-1.66,0-2.42c-0.31-0.44-0.68-0.84-0.95-1.31c0,0-0.07-0.2-0.11-0.22s0,0-0.06,0
		c0.09,0,0.09-0.15,0-0.14L22.98,12.57z"/>
	<path class="st0" d="M22.44,11.44c0.41,0.33,0.88,0.6,1.38,0.78c0.41,0.23,0.69,0.62,0.79,1.07c0,0.08,0.15,0,0.13,0
		c-0.09-0.39-0.31-0.74-0.62-1c-0.32-0.19-0.65-0.35-1-0.49c-0.2-0.12-0.39-0.26-0.56-0.41c-0.07-0.06-0.16,0-0.1,0.1L22.44,11.44z"
		/>
	<path class="st0" d="M2.45,10.95c-0.17,0.13-0.37,0.26-0.55,0.38s-0.55,0.24-0.81,0.39c-0.43,0.25-0.73,0.68-0.83,1.16
		c0,0.04,0.03,0.07,0.07,0.07c0.04,0,0.07-0.03,0.07-0.07c0.06-0.25,0.18-0.49,0.36-0.68c0.19-0.22,0.42-0.38,0.69-0.48
		c0.39-0.17,0.76-0.38,1.1-0.65c0.07-0.06,0-0.15-0.1-0.1L2.45,10.95z"/>
	<path class="st0" d="M9.28,14.32c-0.02,0.24-0.13,0.46-0.3,0.63c-0.07,0.06,0,0.16,0.1,0.1c0.2-0.19,0.33-0.45,0.34-0.73
		C9.42,14.24,9.29,14.24,9.28,14.32z"/>
	<path class="st0" d="M12.52,15.32c0.36,0.39,0.83,0.65,1.35,0.75c0.42,0.08,0.86,0.02,1.25-0.15c0.23-0.1,0.42-0.3,0.65-0.38
		c0.29-0.1,0.61-0.1,0.9,0c0.08,0,0.12-0.1,0-0.13c-0.34-0.13-0.72-0.13-1.06,0c-0.12,0.06-0.23,0.18-0.36,0.25
		c-0.14,0.08-0.29,0.15-0.45,0.2c-0.23,0.07-0.48,0.1-0.72,0.08c-0.56-0.06-1.08-0.32-1.46-0.74c-0.06-0.06-0.16,0-0.1,0.1V15.32z"
		/>
	<path class="st0" d="M11,15.5c0.2,0.4,0.49,0.74,0.85,1c0.7,0.49,1.38,0.12,1.86-0.49c0.05-0.07-0.05-0.17-0.1-0.1
		c-0.22,0.36-0.58,0.61-1,0.69c-0.3,0-0.59-0.11-0.81-0.32c-0.27-0.25-0.5-0.55-0.66-0.88c0-0.08-0.17,0-0.12,0.07L11,15.5z"/>
	<ellipse class="st0" cx="11.18" cy="13.92" rx="0.08" ry="0.09"/>
	<path class="st0" d="M11.19,14.07c-0.06,0-0.11-0.05-0.11-0.11c-0.02-0.06,0.01-0.12,0.07-0.14c0.06-0.02,0.12,0.01,0.14,0.07
		c0.01,0.02,0.01,0.04,0,0.07C11.29,14.02,11.25,14.07,11.19,14.07z M11.19,13.9c0,0-0.05,0-0.05,0.06c0,0.03,0.02,0.06,0.05,0.06
		c0,0,0,0,0-0.06s0.02-0.09,0-0.09V13.9z"/>
	
		<ellipse transform="matrix(0.9421 -0.3353 0.3353 0.9421 -4.2719 4.3813)" class="st0" cx="10.55" cy="14.56" rx="0.08" ry="0.09"/>
	<path class="st0" d="M10.56,14.67c-0.05,0-0.09-0.03-0.11-0.08c-0.02-0.06,0.01-0.12,0.06-0.14c0.03-0.01,0.06-0.01,0.09,0
		c0,0.02,0,0.05,0,0.07l0,0c0.03,0.05,0,0.12-0.05,0.15c0,0-0.01,0-0.01,0L10.56,14.67z M10.56,14.5L10.56,14.5
		c-0.02,0.02-0.02,0.05,0,0.07c0,0,0,0.05,0.06,0c0.02-0.02,0.02-0.05,0-0.07l0,0l0,0H10.56z"/>
	<ellipse transform="matrix(0.9715 -0.2372 0.2372 0.9715 -3.1468 3.1212)" class="st0" cx="11.4" cy="14.64" rx="0.08" ry="0.09"/>
	<path class="st0" d="M11.4,14.76c-0.05-0.01-0.09-0.04-0.11-0.09c0-0.03,0-0.06,0-0.09c0.02,0,0.05,0,0.07,0
		c0.02-0.01,0.06-0.01,0.08,0c0.02,0.02,0.04,0.04,0.05,0.07l0,0c0.01,0.06-0.02,0.12-0.08,0.14L11.4,14.76z M11.4,14.58L11.4,14.58
		L11.4,14.58L11.4,14.58c0,0,0,0.06,0.06,0.05s0,0,0-0.07l0,0L11.4,14.58z"/>
	<ellipse class="st0" cx="14.28" cy="14.55" rx="0.08" ry="0.09"/>
	<path class="st0" d="M14.28,14.67c-0.06-0.01-0.1-0.05-0.1-0.11c-0.02-0.06,0.01-0.12,0.07-0.14c0.06-0.02,0.12,0.01,0.14,0.07
		c0.01,0.02,0.01,0.04,0,0.07C14.39,14.62,14.34,14.67,14.28,14.67z M14.28,14.5c-0.03,0-0.05,0.03-0.05,0.06
		c0,0.03,0.02,0.06,0.05,0.06c0.03,0,0.05-0.03,0.05-0.06C14.33,14.56,14.31,14.5,14.28,14.5z"/>
	<ellipse transform="matrix(0.9421 -0.3353 0.3353 0.9421 -4.3022 5.454)" class="st0" cx="13.64" cy="15.19" rx="0.08" ry="0.09"/>
	<path class="st0" d="M13.66,15.3L13.66,15.3c-0.03-0.02-0.05-0.04-0.06-0.07c-0.02-0.06,0.01-0.12,0.06-0.14h0.08
		c0.03,0.02,0.05,0.04,0.06,0.07l0,0c0.02,0.06-0.01,0.12-0.06,0.14H13.66z M13.66,15.13L13.66,15.13c-0.02,0.02-0.02,0.05,0,0.07
		l0,0l0,0C13.68,15.18,13.68,15.15,13.66,15.13L13.66,15.13L13.66,15.13z"/>
	
		<ellipse transform="matrix(0.9715 -0.2372 0.2372 0.9715 -3.2078 3.8723)" class="st0" cx="14.49" cy="15.27" rx="0.08" ry="0.09"/>
	<path class="st0" d="M14.5,15.39h-0.06c-0.02-0.02-0.04-0.04-0.05-0.07c-0.01-0.03-0.01-0.06,0-0.09c0.02-0.02,0.04-0.04,0.07-0.05
		c0.06-0.01,0.11,0.03,0.12,0.09l0,0c0.02,0.06-0.01,0.12-0.07,0.14c0,0,0,0,0,0L14.5,15.39z M14.5,15.21L14.5,15.21L14.5,15.21
		 M14.5,15.26L14.5,15.26L14.5,15.26c0.02-0.02,0.02-0.05,0-0.07c0,0,0.01,0.02-0.01,0.02L14.5,15.26z"/>
	<path class="st0" d="M9.32,14.73c0.78,0.59,1.75,0.88,2.72,0.8c0.19-0.02,0.37-0.08,0.53-0.17c0.13-0.1,0.1-0.32,0.13-0.48
		s0-0.07-0.05-0.08c-0.23-0.14-0.42-0.33-0.56-0.56c-0.12-0.15-0.22-0.31-0.31-0.48c-0.03-0.16,0.01-0.32,0.11-0.45
		c0.26-0.24,0.65-0.24,0.91,0c0.03,0.02,0.06,0.02,0.09,0c0.34-0.26,0.82-0.2,1.08,0.14c0,0,0.01,0.01,0.01,0.01
		c0.08,0.22,0.04,0.47-0.1,0.66c-0.27,0.4-0.72,0.65-1.2,0.65c-0.04,0-0.07,0.03-0.07,0.07c0,0.04,0.03,0.07,0.07,0.07l0,0
		c0.51-0.01,1-0.25,1.3-0.67c0.17-0.29,0.31-0.74,0-1c-0.28-0.24-0.67-0.28-1-0.12c0,0-0.12,0-0.14,0.06s0,0,0,0
		c-0.08-0.06-0.17-0.11-0.26-0.15c-0.46-0.19-1.16,0.11-1,0.7c0.08,0.19,0.2,0.38,0.33,0.54c0.15,0.26,0.37,0.48,0.64,0.62
		l-0.05-0.08c0,0.11,0,0.23,0,0.34s0,0,0,0.05c-0.15,0.08-0.32,0.13-0.49,0.15c-0.94,0.08-1.87-0.2-2.61-0.78
		c-0.03-0.02-0.07-0.02-0.1,0.01c-0.02,0.03-0.02,0.07,0.01,0.1c0,0,0.01,0.01,0.01,0.01L9.32,14.73z"/>
	<path class="st0" d="M14.12,12.98c0.74,0.16,1.43,0.51,2,1c0.07,0.07,0.19-0.05,0.12-0.12c-0.61-0.52-1.34-0.88-2.12-1.05
		c-0.05,0.02-0.07,0.07-0.06,0.11C14.07,12.95,14.09,12.97,14.12,12.98z"/>
	<path class="st0" d="M15.77,11.7c-0.71,0-1.24,1-1.32,1.18c1.2,1,1.68,0.75,1.68,0.74c0.28-0.22,0.54-0.48,0.77-0.75l0,0
		c0.11-0.05,0.18-0.11,0.18-0.17s-0.11-0.15-0.15-0.17l0,0C16.56,11.95,16.17,11.67,15.77,11.7z M15.47,12.7
		c-0.08,0.01-0.14-0.05-0.15-0.13c0,0,0,0,0,0c0-0.08,0.06-0.14,0.14-0.14c0,0,0.01,0,0.01,0c0.07-0.02,0.15,0.02,0.17,0.1
		c0.02,0.07-0.02,0.15-0.1,0.17C15.52,12.71,15.49,12.71,15.47,12.7z M15.91,12.93c-0.16,0-0.29-0.13-0.29-0.29
		c0-0.16,0.13-0.29,0.29-0.29c0.16,0,0.29,0.13,0.29,0.29c0.02,0.16-0.09,0.31-0.25,0.33c-0.01,0-0.03,0-0.04,0L15.91,12.93z"/>
	<path class="st0" d="M11.37,12.55c-0.77,0.16-1.5,0.5-2.11,1c-0.07,0.08,0,0.2,0.12,0.12c0.58-0.49,1.26-0.83,2-1
		c0.04-0.01,0.07-0.06,0.05-0.1c-0.01-0.04-0.06-0.07-0.1-0.06L11.37,12.55z"/>
	<path class="st0" d="M11.12,12.61c0,0-0.56-1.19-1.36-1.24c-0.42,0-0.83,0.26-1.2,0.85c0,0-0.18,0.1-0.18,0.22s0.08,0.15,0.22,0.21
		c0.23,0.28,0.49,0.53,0.77,0.76c0.06,0.01,0.12,0.01,0.18,0c0.59-0.08,1.14-0.35,1.57-0.76l0,0V12.61z M9.6,12.7
		c-0.16,0-0.29-0.13-0.29-0.29s0.13-0.29,0.29-0.29s0.29,0.13,0.29,0.29l0,0c0,0.15-0.12,0.28-0.27,0.29H9.6z M10.04,12.48
		c-0.08-0.01-0.14-0.07-0.13-0.15c0.01-0.08,0.07-0.14,0.15-0.13c0.07,0.01,0.13,0.07,0.13,0.14c0,0.07-0.06,0.13-0.13,0.14H10.04z"
		/>
	<path class="st0" d="M13.94,13.26c-0.28-0.24-0.67-0.28-1-0.12c-0.05,0.02-0.1,0.04-0.14,0.07l0,0c-0.05-0.05-0.11-0.1-0.18-0.14
		c-0.47-0.19-1.16,0.1-1,0.7c0.08,0.19,0.19,0.37,0.33,0.53c0.15,0.26,0.37,0.48,0.63,0.63c0.02,0.01,0.04,0.01,0.06,0l0,0
		c0.52,0,1-0.25,1.3-0.67C14.19,13.97,14.2,13.55,13.94,13.26z M13.51,13.61c-0.08,0-0.14-0.09-0.12-0.11s0.08,0,0.16,0
		s0.14,0.08,0.13,0.11S13.59,13.64,13.51,13.61z"/>
</g>
</svg>
