<svg xmlns="http://www.w3.org/2000/svg" viewBox="0 0 34.86 41.09"><defs><style>.a{fill:#fff;}</style></defs><path class="a" d="M3.47,27.66c0-.37-.17-.55-.52-.55H2.78a.14.14,0,0,1-.15,0Q2.57,27,2.84,27H3a.64.64,0,0,1,.63.4,1.08,1.08,0,0,1,.07.43,1.33,1.33,0,0,1-.22.65,2.32,2.32,0,0,1-1.23,1.06,1.4,1.4,0,0,1-1.2,0,1.54,1.54,0,0,1-.82-.93,2.16,2.16,0,0,1-.09-.72,2.9,2.9,0,0,1,.22-1,4.67,4.67,0,0,1,1.63-2A4,4,0,0,1,4.29,24a1.19,1.19,0,0,1,1.19.72,1.78,1.78,0,0,1,.14.75v.3a6.64,6.64,0,0,1-.41,1.59.76.76,0,0,0-.06.2h0s.07,0,.13-.16a13.14,13.14,0,0,1,1.3-1.94A2.22,2.22,0,0,1,7.14,25a1.47,1.47,0,0,1,.66-.13.57.57,0,0,1,.44.2.86.86,0,0,1,.17.56,10.24,10.24,0,0,1-.63,2.69c-.09.25-.14.41-.16.48a27.08,27.08,0,0,1,1.62-2.24A4.14,4.14,0,0,1,11,25.13h.24a.37.37,0,0,1,.39.31,1,1,0,0,1,0,.24,2.31,2.31,0,0,1-.32,1,15.25,15.25,0,0,0-.89,2.09,5.6,5.6,0,0,0-.33,1.4,2.56,2.56,0,0,0,.07.62.68.68,0,0,0,.76.49h.25l-.06.07h-.24a1.19,1.19,0,0,1-1.26-1.11v-.18a3.14,3.14,0,0,1,.17-1c.11-.35.21-.63.29-.82s.4-.92.81-1.82a2,2,0,0,0,.21-.76c0-.18-.07-.27-.22-.27a2.46,2.46,0,0,0-1,.64c-.22.23-.47.5-.73.82-.41.55-.8,1.12-1.15,1.7a12.62,12.62,0,0,0-1,1.7c-.12.29-.28.43-.49.43s-.23-.05-.25-.15a.09.09,0,0,1,0-.1l.15-.27.33-.37c.09-.17.2-.41.33-.7s.24-.59.34-.89a10.84,10.84,0,0,0,.53-2.32,1.93,1.93,0,0,0,0-.34.43.43,0,0,0-.11-.32.35.35,0,0,0-.23-.12c-.26,0-.55.19-.86.59A12.89,12.89,0,0,0,5.6,27.24c-.31.51-.55.94-.72,1.28s-.37.77-.59,1.25-.33.75-.35.78a.33.33,0,0,1,0,.12.42.42,0,0,0-.06.14.46.46,0,0,1-.45.23c-.13,0-.21,0-.22-.13h0a15.52,15.52,0,0,0,1.17-2.47,9.75,9.75,0,0,0,.81-3c0-.77-.31-1.15-.94-1.15a3,3,0,0,0-1.49.49,5.18,5.18,0,0,0-1.53,1.49,3.32,3.32,0,0,0-.36.7,3.43,3.43,0,0,0-.21,1,1.35,1.35,0,0,0,.69,1.36.94.94,0,0,0,.49.12,1.61,1.61,0,0,0,1.41-.94A1.59,1.59,0,0,0,3.47,27.66Z" transform="translate(-0.17 -0.64)"/><path class="a" d="M11.41,30.35a.47.47,0,0,0,.3-.16,4.66,4.66,0,0,0,.75-1.2c0-.08.08-.11.12-.07h0a.49.49,0,0,1-.06.17c0,.1-.08.18-.12.25a2.18,2.18,0,0,1-.2.37,2.7,2.7,0,0,1-.27.39.83.83,0,0,1-.62.37.46.46,0,0,1-.41-.17.62.62,0,0,1-.13-.4,1.28,1.28,0,0,1,.1-.47l.51-1.3a.28.28,0,0,0,0-.13.45.45,0,0,0-.1-.21h.43c.12,0,.2,0,.22.06a.8.8,0,0,1,0,.22l-.64,1.49a1.28,1.28,0,0,0-.13.5.22.22,0,0,0,.06.29A.21.21,0,0,0,11.41,30.35Zm.79-2.94a.35.35,0,0,1-.25.1.23.23,0,0,1-.22-.1.3.3,0,0,1,0-.23.36.36,0,0,1,.13-.23.46.46,0,0,1,.25-.1.37.37,0,0,1,.22.1.24.24,0,0,1,.06.23A.3.3,0,0,1,12.2,27.41Z" transform="translate(-0.17 -0.64)"/><path class="a" d="M15.38,26.88A3.55,3.55,0,0,0,15,28.37q0,1.35.93,1.65a1.7,1.7,0,0,0,.55.07,1.92,1.92,0,0,0,.58-.07,3.24,3.24,0,0,0,1-.46,1.39,1.39,0,0,0,.57-.58c.21-.49.44-.74.69-.74s.2.07.25.21a.25.25,0,0,1,0,.17,4.89,4.89,0,0,1-.34,1.26,14.37,14.37,0,0,1-.74,1.4,7.35,7.35,0,0,1,1.75.21c.11,0,.16.06.16.11s-.07.07-.23,0a6.54,6.54,0,0,0-1.59-.14h-.21a4.91,4.91,0,0,1-1.29,1.24,5.44,5.44,0,0,1-1.58.74,3,3,0,0,1-.72.11,1.21,1.21,0,0,1-.5-.07c-.39-.15-.58-.34-.58-.57a.46.46,0,0,1,.06-.22,2.13,2.13,0,0,1,1.13-.89,5.38,5.38,0,0,1,1.47-.42,14.23,14.23,0,0,1,1.73-.13,6.81,6.81,0,0,0,.8-2V29.1a4.72,4.72,0,0,1-1.7,1,2.87,2.87,0,0,1-.95.19,1.62,1.62,0,0,1-.65-.11,1.47,1.47,0,0,1-.83-.7,2.48,2.48,0,0,1-.35-1.33,4.23,4.23,0,0,1,.41-1.67,1.68,1.68,0,0,1-.53-1.15,1.71,1.71,0,0,1,.5-1.16c.06-.07.11-.1.14-.08s0,.07,0,.14a1.61,1.61,0,0,0-.36,1,1.49,1.49,0,0,0,.42,1l.17-.31a4.19,4.19,0,0,1,1.7-1.56A3.53,3.53,0,0,1,18.47,24h.43a1.73,1.73,0,0,1,1.42.91,1.22,1.22,0,0,1,.14.59,1.45,1.45,0,0,1-.19.68,2.44,2.44,0,0,1-1.56,1.06,3.81,3.81,0,0,1-1.21.17A3.59,3.59,0,0,1,15.38,26.88ZM14.14,33c0,.15.12.25.38.3h.28a3.35,3.35,0,0,0,1.44-.4A4.13,4.13,0,0,0,18,31.45a14.58,14.58,0,0,0-1.47.13,4.49,4.49,0,0,0-1.74.66c-.43.25-.64.49-.64.69Zm4.57-8.75a2.77,2.77,0,0,0-1.45.47,4.51,4.51,0,0,0-1.75,1.92,2.12,2.12,0,0,0,.87.41,3.62,3.62,0,0,0,3.33-.78,1.35,1.35,0,0,0,.43-.93,1,1,0,0,0-.82-1A2.1,2.1,0,0,0,18.71,24.23Z" transform="translate(-0.17 -0.64)"/><path class="a" d="M21.22,27.32a.88.88,0,0,1-.45.68h1.1a.28.28,0,0,1,0,.13,1,1,0,0,1-.1.31c-.06.14-.12.25-.17.35l-.14.28-.16.32-.14.36c-.13.4-.11.6.07.6s.55-.44,1-1.33c0-.07.07-.1.09-.08s0,0,0,.06a1.89,1.89,0,0,1-.11.25l-.22.43a3.31,3.31,0,0,1-.38.52.76.76,0,0,1-.58.37c-.21,0-.35-.13-.43-.38a.74.74,0,0,1,0-.21,1.4,1.4,0,0,1,.1-.39A4.48,4.48,0,0,1,21,29c.08-.13.15-.26.22-.4a.24.24,0,0,0,0-.12c0-.16-.22-.25-.64-.26l-.1.25a5,5,0,0,1-1,1.77c0,.05-.08,0-.08,0h0a5.79,5.79,0,0,0,.77-1.4,7.51,7.51,0,0,0,.55-1.68.23.23,0,0,1,.2-.24h0a.27.27,0,0,1,.26.22A.55.55,0,0,1,21.22,27.32Z" transform="translate(-0.17 -0.64)"/><path class="a" d="M24.24,29a3.12,3.12,0,0,0-.31.76,1.34,1.34,0,0,0,0,.4c0,.11,0,.16.12.16s.22-.09.37-.28A5.68,5.68,0,0,0,25.07,29s0-.08.07-.08h.06a.14.14,0,0,1,0,.09c-.49,1-.9,1.49-1.24,1.49a.41.41,0,0,1-.37-.23.57.57,0,0,1-.08-.32,2,2,0,0,1,.08-.48c-.42.68-.79,1-1.1,1a.4.4,0,0,1-.23-.08.63.63,0,0,1-.31-.5,2.52,2.52,0,0,1,.68-1.59,1.75,1.75,0,0,1,.94-.58h.29a.81.81,0,0,1,.62.25.14.14,0,0,1,0,.17.12.12,0,0,1-.13.07.38.38,0,0,0-.34-.32q-.35,0-.84.54a4,4,0,0,0-.54.75,1.83,1.83,0,0,0-.31.83c0,.21.06.32.2.32.32,0,.74-.49,1.25-1.47a1.49,1.49,0,0,1,.26-.41.36.36,0,0,1,.26-.11h.36A3.62,3.62,0,0,0,24.24,29Z" transform="translate(-0.17 -0.64)"/><path class="a" d="M27.43,27.88a6.69,6.69,0,0,0-1,2.25q0,.21.15.21c.27,0,.64-.46,1.1-1.38,0-.08,0-.08.09-.08s0,0,0,.07a.14.14,0,0,1,0,.09,5.25,5.25,0,0,1-.72,1.18.77.77,0,0,1-.58.32.46.46,0,0,1-.44-.22A.4.4,0,0,1,26,30,1.32,1.32,0,0,1,26,29.6a3.89,3.89,0,0,1,.44-.83.63.63,0,0,0,.08-.23s0-.08-.13-.08-.27.12-.52.36a5.44,5.44,0,0,0-1.11,1.58.16.16,0,0,1-.11.1h-.24a.45.45,0,0,0-.23,0c.09-.17.25-.52.51-1a9.26,9.26,0,0,1,.92-1.62.39.39,0,0,1,.26,0h.36a4.59,4.59,0,0,0-1,1.5,9.46,9.46,0,0,1,.68-.74,5.77,5.77,0,0,1,.77-.52,1.72,1.72,0,0,1,.63-.24Z" transform="translate(-0.17 -0.64)"/><path class="a" d="M28.07,28.18a.28.28,0,0,0,0-.13.45.45,0,0,0-.1-.21h.44c.12,0,.19,0,.22.06s0,.12,0,.22L28,29.61c-.13.31-.3.67-.5,1.06l.46-.19a1.92,1.92,0,0,0,.35-.23,1.89,1.89,0,0,0,.32-.37c.1-.14.26-.44.5-.88a.08.08,0,0,1,.06-.09h0a.08.08,0,0,1,0,.07,2.08,2.08,0,0,1-.13.3c-.09.18-.18.35-.27.5a2.73,2.73,0,0,1-.35.47,1.79,1.79,0,0,1-.48.39c-.23.11-.46.21-.7.3A6,6,0,0,1,26,32.59a2.39,2.39,0,0,1-.57.34,1.8,1.8,0,0,1-.68.14.88.88,0,0,1-.55-.15.5.5,0,0,1-.19-.36,1.31,1.31,0,0,1,.12-.47,1.5,1.5,0,0,1,.75-.65A5.08,5.08,0,0,1,26,31.08l.9-.2a2.86,2.86,0,0,0,.24-.42l.57-1.23c-.09,0-.11,0-.07-.13Zm-3.71,4.07a.89.89,0,0,0-.08.32.24.24,0,0,0,.11.23.41.41,0,0,0,.32.08,1.53,1.53,0,0,0,1-.48,4.9,4.9,0,0,0,1-1.3c-.56.14-1.11.3-1.65.49A1.49,1.49,0,0,0,24.36,32.25Zm4.44-4.84a.35.35,0,0,1-.25.1.24.24,0,0,1-.21-.09.26.26,0,0,1-.07-.15v-.14A.38.38,0,0,1,28.4,27a.4.4,0,0,1,.24-.1.36.36,0,0,1,.22.09.23.23,0,0,1,.07.15v.14A.3.3,0,0,1,28.8,27.41Z" transform="translate(-0.17 -0.64)"/><path class="a" d="M29.42,30.35a.56.56,0,0,0,.29-.16,4.66,4.66,0,0,0,.75-1.2c0-.08.08-.11.11-.07h0a.49.49,0,0,1-.06.17l-.12.25a2.18,2.18,0,0,1-.2.37,2.7,2.7,0,0,1-.27.39.83.83,0,0,1-.62.37.52.52,0,0,1-.42-.17.7.7,0,0,1-.12-.4,1.28,1.28,0,0,1,.1-.47l.51-1.3a.28.28,0,0,0,0-.13.45.45,0,0,0-.1-.21h.44c.12,0,.2,0,.22.06a.81.81,0,0,1,0,.22l-.62,1.54a1.29,1.29,0,0,0-.14.5.22.22,0,0,0,.2.24h.05Zm.78-2.94a.33.33,0,0,1-.24.1.23.23,0,0,1-.22-.1.3.3,0,0,1,0-.23.36.36,0,0,1,.13-.23.46.46,0,0,1,.25-.1.37.37,0,0,1,.22.1.24.24,0,0,1,.06.23A.33.33,0,0,1,30.2,27.41Z" transform="translate(-0.17 -0.64)"/><path class="a" d="M30.3,29.88a6.9,6.9,0,0,1,.64-2.22h-.47a.14.14,0,0,1,0-.09.06.06,0,0,1,.06,0H31c.16-.36.34-.72.53-1.06a1.93,1.93,0,0,1,.47-.63.85.85,0,0,1,.3-.15h.13a.38.38,0,0,1,.19.36,1.72,1.72,0,0,1-.19.67c-.12.26-.24.5-.36.73h.39m.05,0a.14.14,0,0,1,0,.09H32A5.89,5.89,0,0,1,30.92,29l-.21.81a.74.74,0,0,0,0,.21.34.34,0,0,0,0,.2.17.17,0,0,0,.18.11.54.54,0,0,0,.3-.1A3.32,3.32,0,0,0,32,29a.08.08,0,1,1,.12-.12h.06a.2.2,0,0,1,0,.11,7.22,7.22,0,0,1-.41.78c-.29.47-.6.7-.92.7a.49.49,0,0,1-.41-.18.62.62,0,0,1-.18-.41Zm-.72.17h-.37c-.07.15-.21.5-.43,1.06A6.41,6.41,0,0,0,31.8,27.66Zm.11-.17a3.51,3.51,0,0,0,.52-1.32V26a.93.93,0,0,0-.27.25,9.2,9.2,0,0,0-.6,1.22Z" transform="translate(-0.17 -0.64)"/><path class="a" d="M34.12,29a3.15,3.15,0,0,0-.32.76,2.91,2.91,0,0,0,0,.4c0,.11,0,.16.12.16s.23-.09.38-.28A5.15,5.15,0,0,0,34.89,29s0-.08.08-.08H35V29c-.49,1-.91,1.49-1.24,1.49a.43.43,0,0,1-.38-.23.58.58,0,0,1-.07-.32,2,2,0,0,1,.08-.48c-.43.68-.79,1-1.1,1a.4.4,0,0,1-.23-.08.63.63,0,0,1-.26-.5,2.52,2.52,0,0,1,.68-1.59,1.75,1.75,0,0,1,.94-.58h.26a.81.81,0,0,1,.62.25.16.16,0,0,1,.05.17c0,.06-.07.08-.14.07a.36.36,0,0,0-.35-.32c-.23,0-.51.18-.85.54a4.85,4.85,0,0,0-.53.75,2,2,0,0,0-.32.83c0,.21.07.32.2.32q.48,0,1.26-1.47a1.46,1.46,0,0,1,.25-.41.39.39,0,0,1,.27-.11h.36A2.8,2.8,0,0,0,34.12,29Z" transform="translate(-0.17 -0.64)"/><path class="a" d="M14.88,35.75A1.43,1.43,0,0,1,15.71,37a1.8,1.8,0,0,1-.63,1.2,3.51,3.51,0,0,1-.85.64,3.33,3.33,0,0,1-1,.4,6.37,6.37,0,0,1-1.5.2h-.29a9.09,9.09,0,0,1-1.15,1.47,2.81,2.81,0,0,1-2,.85c-.69,0-1.11-.19-1.27-.57A.78.78,0,0,1,7,40.85a.61.61,0,0,1,.18-.39A1,1,0,0,1,8,40.13a2.1,2.1,0,0,1,.7.12c.09,0,.13.07.1.1s-.09,0-.21,0a1.59,1.59,0,0,0-.43-.06.66.66,0,0,0-.46.19.57.57,0,0,0-.19.42.54.54,0,0,0,0,.18c.08.29.33.43.72.43a2.53,2.53,0,0,0,1.76-.83,8,8,0,0,0,1.38-2.16c.2-.39.45-.82.74-1.3A8.85,8.85,0,0,1,13,36l.15-.15.28-.3c-.41,0-.82-.07-1.23-.08a7.33,7.33,0,0,0-1.24.11c-.34.07-.67.15-1,.25a6.79,6.79,0,0,0-.87.39,2.29,2.29,0,0,0-.75.59,1.44,1.44,0,0,0-.4,1,.85.85,0,0,0,.22.57.69.69,0,0,0,.59.28,1.06,1.06,0,0,0,.71-.28,1.6,1.6,0,0,0,.48-.69v-.07h0a.11.11,0,0,1,0,.08,1,1,0,0,1-.4.82,1.34,1.34,0,0,1-.88.3,1.23,1.23,0,0,1-.88-.32,1.07,1.07,0,0,1-.35-.82,1.58,1.58,0,0,1,.25-.84,2.4,2.4,0,0,1,.59-.6A6,6,0,0,1,9,35.82a7.25,7.25,0,0,1,1.6-.42,10.16,10.16,0,0,1,1.56-.13,7.4,7.4,0,0,1,1.33.13,1.85,1.85,0,0,1,.51-.3l.24-.08h0a.9.9,0,0,1-.19.15l-.3.25A4.37,4.37,0,0,1,14.88,35.75Zm-3.17,3.48A4.48,4.48,0,0,0,13,39a3.81,3.81,0,0,0,1.21-.6,2.16,2.16,0,0,0,1-1.6c0-.62-.48-1-1.42-1.27-.3.42-.68,1-1.16,1.9s-.82,1.43-1,1.77Z" transform="translate(-0.17 -0.64)"/><path class="a" d="M16.33,39.88a3.15,3.15,0,0,0-.32.76,2.8,2.8,0,0,0,0,.41c0,.1,0,.16.12.16s.22-.1.37-.28a5.19,5.19,0,0,0,.6-1l.07-.08h.07a.17.17,0,0,1,0,.1c-.49,1-.9,1.48-1.24,1.48a.45.45,0,0,1-.37-.22.58.58,0,0,1-.07-.32,1.67,1.67,0,0,1,.08-.49c-.43.69-.8,1-1.11,1a.38.38,0,0,1-.23-.08.66.66,0,0,1-.24-.57,2.48,2.48,0,0,1,.65-1.54,1.81,1.81,0,0,1,1-.59H16a.92.92,0,0,1,.63.26c0,.06.07.12,0,.17s-.06.07-.13.06a.39.39,0,0,0-.39-.29,1.38,1.38,0,0,0-.84.55,4,4,0,0,0-.54.75,1.83,1.83,0,0,0-.31.83c0,.21.07.31.2.31.32,0,.74-.49,1.25-1.47a2.48,2.48,0,0,1,.26-.4.36.36,0,0,1,.26-.11h.33A3.56,3.56,0,0,0,16.33,39.88Z" transform="translate(-0.17 -0.64)"/><path class="a" d="M18.18,38.18a.84.84,0,0,1-.47.7h1.11a.28.28,0,0,1,0,.13.8.8,0,0,1-.09.31c-.07.13-.12.25-.17.35l-.15.28-.15.32c-.06.13-.1.25-.14.35-.13.41-.11.61.06.61s.56-.45,1-1.33c0-.07.07-.1.1-.08a.06.06,0,0,1,0,.06,1.33,1.33,0,0,1-.1.24l-.23.44a2.44,2.44,0,0,1-.37.52.79.79,0,0,1-.58.37.45.45,0,0,1-.44-.38.81.81,0,0,1,0-.22,1.24,1.24,0,0,1,.09-.38,4.48,4.48,0,0,1,.29-.58c.14-.23.21-.37.23-.41v-.11c0-.17-.21-.26-.64-.27l-.09.26a5,5,0,0,1-1,1.77s-.08,0-.08-.05V41a6.56,6.56,0,0,0,.77-1.4A7.86,7.86,0,0,0,17.71,38a.21.21,0,0,1,.19-.24h0c.12,0,.2.08.26.23A.81.81,0,0,1,18.18,38.18Z" transform="translate(-0.17 -0.64)"/><path class="a" d="M21.2,39.88a3.15,3.15,0,0,0-.32.76,3.05,3.05,0,0,0-.05.41c0,.1,0,.16.12.16s.23-.1.38-.28a5.56,5.56,0,0,0,.64-1s.05-.07.08-.08h.06v.1c-.49,1-.91,1.48-1.24,1.48a.41.41,0,0,1-.38-.22.71.71,0,0,1-.07-.32,1.67,1.67,0,0,1,.08-.49c-.43.69-.79,1-1.1,1a.27.27,0,0,1-.23-.08.66.66,0,0,1-.24-.57,2.52,2.52,0,0,1,.68-1.59,1.77,1.77,0,0,1,.94-.59,1.41,1.41,0,0,1,.29,0,.9.9,0,0,1,.62.26.17.17,0,0,1,0,.17s-.07.07-.14.06a.38.38,0,0,0-.38-.29c-.23,0-.51.19-.85.55a4.85,4.85,0,0,0-.53.75,2,2,0,0,0-.32.83c0,.21.07.31.2.31q.48,0,1.26-1.47a2.42,2.42,0,0,1,.25-.4.39.39,0,0,1,.27-.11h.36A4,4,0,0,0,21.2,39.88Z" transform="translate(-0.17 -0.64)"/><path class="a" d="M22.29,41.21a.5.5,0,0,0,.32-.15,5.37,5.37,0,0,0,.75-1.18c0-.08.07-.1.11-.07m0,0a.75.75,0,0,1-.07.18l-.11.25-.2.36a2.7,2.7,0,0,1-.27.39.9.9,0,0,1-.62.38.46.46,0,0,1-.42-.18.61.61,0,0,1-.13-.39,1.29,1.29,0,0,1,.11-.47l.51-1.3a.28.28,0,0,0,0-.13.43.43,0,0,0-.09-.21h.44c.12,0,.19,0,.21.07a.26.26,0,0,1,0,.21l-.64,1.5a1.28,1.28,0,0,0-.13.5c0,.11.06.19.23.19Zm-.4-1.58a.35.35,0,0,1-.25.1.25.25,0,0,1-.21-.1.27.27,0,0,1-.07-.23.43.43,0,0,1,.14-.23.39.39,0,0,1,.25-.1.3.3,0,0,1,.22.1.32.32,0,0,1,.06.23A.43.43,0,0,1,23.07,38.28Z" transform="translate(-0.17 -0.64)"/><path class="a" d="M24.05,41.24h.15a.82.82,0,0,0,.63-.37,9.12,9.12,0,0,0,.6-1m.05,0s.07,0,.07.06V40a1,1,0,0,0-.07.15s-.06.12-.1.22a1.71,1.71,0,0,1-.13.23l-.13.22A1.56,1.56,0,0,1,25,41l-.17.17a.7.7,0,0,1-.32.19.92.92,0,0,1-.57,0,.76.76,0,0,1-.33.08.61.61,0,0,1-.69-.45,1,1,0,0,1,0-.25.48.48,0,0,1,.1-.28.41.41,0,0,1,.21-.15c.27-.51.5-1,.7-1.4s.46-.67.74-.67a.41.41,0,0,1,.22,0,.08.08,0,0,1,.08.08s0,0,0,0h-.38a.55.55,0,0,0-.27.55,1.15,1.15,0,0,0,.06.37,1.48,1.48,0,0,0,.15.31,1.86,1.86,0,0,1,.18.68,1,1,0,0,1-.17.52,1.39,1.39,0,0,1-.45.42ZM23.18,41v.11a.27.27,0,0,0,.3.21h.15a.69.69,0,0,1-.31-.6A.47.47,0,0,0,23.18,41Zm.6.22a1,1,0,0,0,.35-.88,4,4,0,0,0-.05-.68A5.42,5.42,0,0,1,24,39a.74.74,0,0,1,0-.21l-.75,1.48c.11,0,.17.08.17.24A.63.63,0,0,0,23.78,41.18Z" transform="translate(-0.17 -0.64)"/><path class="a" d="M26.86,38.59c.39,0,.59.25.59.74a1.73,1.73,0,0,1-.18.71,2.65,2.65,0,0,1-.67,1,.41.41,0,0,0,.38.2.53.53,0,0,0,.4-.22,2.44,2.44,0,0,0,.35-.43l.15-.28L28,40a1.86,1.86,0,0,1,.1-.2h0s.08,0,.08.06a.06.06,0,0,1,0,.06V40a1.11,1.11,0,0,0-.07.16l-.09.17a1.14,1.14,0,0,1-.1.19l-.12.2a1.33,1.33,0,0,1-.14.19l-.15.16a.65.65,0,0,1-.16.13.77.77,0,0,1-.38.12.62.62,0,0,1-.51-.2,1.13,1.13,0,0,1-.68.27c-.39,0-.58-.25-.58-.74a2,2,0,0,1,.17-.72,2.64,2.64,0,0,1,.68-.95A1.35,1.35,0,0,1,26.86,38.59Zm.09.25a.85.85,0,0,0-.51.29,2.76,2.76,0,0,0-.53.78,2.38,2.38,0,0,0-.28.94c0,.25.1.37.28.37a.67.67,0,0,0,.45-.22.68.68,0,0,1-.13-.39c0-.23.11-.34.28-.34a.28.28,0,0,1,.17.07.17.17,0,0,1,.07.13v.13a5.18,5.18,0,0,0,.31-.57,2,2,0,0,0,.2-.8c0-.23-.11-.35-.31-.35Z" transform="translate(-0.17 -0.64)"/><path class="a" d="M15.23,17.53a6.94,6.94,0,0,0,1,3,.06.06,0,0,0,.09,0,.07.07,0,0,0,0-.09v0a6.83,6.83,0,0,1-1-2.9.08.08,0,0,0-.07-.07.08.08,0,0,0-.07.07h0Z" transform="translate(-0.17 -0.64)"/><path class="a" d="M14.3,19.31c-.27.72-.33,1.79.5,2.15.08,0,.15-.09.07-.12-.77-.34-.68-1.33-.43-2,0-.09-.1-.12-.14,0Z" transform="translate(-0.17 -0.64)"/><path class="a" d="M19.53,17.67a7.36,7.36,0,0,1-.93,2.86.07.07,0,0,0,0,.1.07.07,0,0,0,.1,0v0a7.48,7.48,0,0,0,.94-2.93C19.66,17.58,19.54,17.54,19.53,17.67Z" transform="translate(-0.17 -0.64)"/><path class="a" d="M20.45,19.52a1.47,1.47,0,0,1-.39,1.91c-.07,0,0,.17.07.12a1.63,1.63,0,0,0,.44-2.1C20.57,19.37,20.41,19.45,20.45,19.52Z" transform="translate(-0.17 -0.64)"/><path class="a" d="M11.73,16.09a2,2,0,0,0-.22,1,3.73,3.73,0,0,0,1.24,2.45c.06.07.16,0,.1-.1a3.53,3.53,0,0,1-1.2-2.4,1.77,1.77,0,0,1,.2-.92.07.07,0,0,0,0-.09.07.07,0,0,0-.1,0h0Z" transform="translate(-0.17 -0.64)"/><path class="a" d="M10.92,15.74a3,3,0,0,0-.58,1.2,2.73,2.73,0,0,0,.58,2.44c0,.07.15,0,.09-.1a2.6,2.6,0,0,1-.5-2.43,2.94,2.94,0,0,1,.5-1c.06-.07,0-.17-.09-.1Z" transform="translate(-0.17 -0.64)"/><path class="a" d="M9.42,16.5a3.43,3.43,0,0,0-.26,4c0,.07.17,0,.12-.07a3.33,3.33,0,0,1,.24-3.84C9.52,16.53,9.47,16.43,9.42,16.5Z" transform="translate(-0.17 -0.64)"/><path class="a" d="M8.64,17.84a2,2,0,0,0-.27,1.83c0,.08.16,0,.13,0A1.79,1.79,0,0,1,8.74,18c.06-.07,0-.17-.1-.1Z" transform="translate(-0.17 -0.64)"/><path class="a" d="M9.24,13.8A3.73,3.73,0,0,0,7.39,17a5.51,5.51,0,0,0,.48,2.27c0,.08.17,0,.14,0a4.42,4.42,0,0,1,.06-4.12A3.22,3.22,0,0,1,9.31,14c.08,0,0-.17-.08-.13Z" transform="translate(-0.17 -0.64)"/><path class="a" d="M7.18,14.35a6.55,6.55,0,0,0-.39.53,1.46,1.46,0,0,0-.33.78c0,.09.14.09.13,0a1.6,1.6,0,0,1,.35-.76c.11-.15.22-.31.34-.46S7.28,14.28,7.18,14.35Z" transform="translate(-0.17 -0.64)"/><path class="a" d="M22.77,16.67a2,2,0,0,1,.16.91A3.82,3.82,0,0,1,21.77,20c-.06.06,0,.16.1.1a4.11,4.11,0,0,0,1.2-2.44,2.17,2.17,0,0,0-.18-1c0-.08-.16,0-.12.07Z" transform="translate(-0.17 -0.64)"/><path class="a" d="M23.59,16.27a2.7,2.7,0,0,1,0,3.45c-.06.07.07.14.12.07a2.91,2.91,0,0,0,.56-2.5,3,3,0,0,0-.57-1.11c-.06-.07-.16,0-.1.09Z" transform="translate(-0.17 -0.64)"/><path class="a" d="M25,17a3.38,3.38,0,0,1,.64,1.1,3.19,3.19,0,0,1-.34,2.77.07.07,0,0,0,0,.1.07.07,0,0,0,.1,0v0a3.33,3.33,0,0,0-.32-4c-.06-.07-.16,0-.1.09Z" transform="translate(-0.17 -0.64)"/><path class="a" d="M25.81,18.22a2.41,2.41,0,0,1,.33,1.83c0,.09.12.13.14,0a2.61,2.61,0,0,0-.35-1.94c-.06-.07-.18,0-.12.07Z" transform="translate(-0.17 -0.64)"/><path class="a" d="M25.32,14.37a3.17,3.17,0,0,1,1.16,1.14,4.89,4.89,0,0,1,.15,4.16c0,.09.1.12.13,0a5.4,5.4,0,0,0,.16-3.57,3.59,3.59,0,0,0-1.18-1.62,2.71,2.71,0,0,0-.35-.24c-.08,0-.15.08-.07.12Z" transform="translate(-0.17 -0.64)"/><path class="a" d="M27.18,14.89A2.06,2.06,0,0,1,27.87,16,.06.06,0,0,0,28,16l0,0a2.21,2.21,0,0,0-.75-1.14c-.07-.06-.17,0-.1.1Z" transform="translate(-0.17 -0.64)"/><path class="a" d="M28.2,10.06l.85-.11c.09,0,.09-.15,0-.14l-.85.11C28.12,9.92,28.12,10.07,28.2,10.06Z" transform="translate(-0.17 -0.64)"/><path class="a" d="M27.65,9.3A1.48,1.48,0,0,1,29,8.84c.09,0,.13-.12,0-.13a1.62,1.62,0,0,0-1.52.49c-.06.07,0,.16.1.1Z" transform="translate(-0.17 -0.64)"/><path class="a" d="M26.51,8.28a2.27,2.27,0,0,1,1.36-1.06c.09,0,.05-.15,0-.13a2.39,2.39,0,0,0-1.41,1.12c-.05.07.07.14.13.07Z" transform="translate(-0.17 -0.64)"/><path class="a" d="M25.11,6.74a1.2,1.2,0,0,1,1.48,0c.07,0,.14-.07.07-.12a1.34,1.34,0,0,0-1.65,0c-.06.06,0,.16.1.1Z" transform="translate(-0.17 -0.64)"/><path class="a" d="M25.18,5.67A2.79,2.79,0,0,1,28.43,5c.08,0,.15-.08.07-.12a2.93,2.93,0,0,0-3.42.65C25,5.63,25.08,5.73,25.18,5.67Z" transform="translate(-0.17 -0.64)"/><path class="a" d="M24.21,5.75l1.35-1.54c.06-.07,0-.17-.1-.1L24.11,5.67c0,.07,0,.17.1.1Z" transform="translate(-0.17 -0.64)"/><path class="a" d="M6.34,9.58l-.87-.19a.07.07,0,0,0,0,.1,0,0,0,0,0,0,0l.86.2c.09,0,.13-.12,0-.14Z" transform="translate(-0.17 -0.64)"/><path class="a" d="M7,8.82a1.61,1.61,0,0,0-1.55-.49c-.09,0,0,.17,0,.14a1.46,1.46,0,0,1,1.43.45c.07.06.17,0,.1-.1Z" transform="translate(-0.17 -0.64)"/><path class="a" d="M8.09,7.82a2.13,2.13,0,0,0-1.4-1.15c-.08,0-.12.12,0,.14a2,2,0,0,1,1.3,1c0,.08.16,0,.13,0Z" transform="translate(-0.17 -0.64)"/><path class="a" d="M9.49,6.27c-.41-.53-1.16-.31-1.64,0-.08,0,0,.16.07.12.41-.25,1.11-.47,1.45,0,0,.07.17,0,.12-.07Z" transform="translate(-0.17 -0.64)"/><path class="a" d="M9.44,5.15A3,3,0,0,0,6,4.53c-.08,0,0,.16.07.12a2.83,2.83,0,0,1,3.25.6C9.41,5.31,9.5,5.25,9.44,5.15Z" transform="translate(-0.17 -0.64)"/><path class="a" d="M10.35,5.23,9.06,3.67c-.06-.07-.16,0-.1.1l1.29,1.56C10.31,5.4,10.41,5.33,10.35,5.23Z" transform="translate(-0.17 -0.64)"/><path class="a" d="M11.59,4.67c-.17-.24-.36-.47-.55-.69a2.19,2.19,0,0,0-.93-.72c-.09,0-.13.11,0,.13a2.24,2.24,0,0,1,.91.73c.17.2.33.41.49.62s.18,0,.12-.07Z" transform="translate(-0.17 -0.64)"/><path class="a" d="M18.87,4.34a2.44,2.44,0,0,1-.08,1.44c0,.08.1.12.13,0A2.55,2.55,0,0,0,19,4.28a.08.08,0,0,0-.07-.07.08.08,0,0,0-.07.07Z" transform="translate(-0.17 -0.64)"/><path class="a" d="M18.28,4.15a1.8,1.8,0,0,1,0,1.54c0,.09.1.12.13,0A2,2,0,0,0,18.36,4c0-.07-.18,0-.12.07Z" transform="translate(-0.17 -0.64)"/><path class="a" d="M17.74,4a1.18,1.18,0,0,1,.12,1c0,.09.12.12.13,0a1.29,1.29,0,0,0-.12-1.1c-.06-.06-.16,0-.1.1Z" transform="translate(-0.17 -0.64)"/><path class="a" d="M17,4.53c.48.17.61.87.63,1.3,0,.09.15.09.14,0A1.51,1.51,0,0,0,17,4.39c-.08,0-.12.1,0,.14Z" transform="translate(-0.17 -0.64)"/><path class="a" d="M8.6,13a2.22,2.22,0,0,1,.2-1.1,1.81,1.81,0,0,1,2.15-.8s.11-.05.08-.1a2.35,2.35,0,0,1-.37-1.21c0-1.09,1-1.74,1.92-2.09.09,0,0-.16,0-.13-1,.32-2,.94-2,2.07A2.44,2.44,0,0,0,10.87,11l.08-.1a2,2,0,0,0-2.22.73,2.25,2.25,0,0,0-.27,1.27c0,.09.15.09.14,0Z" transform="translate(-0.17 -0.64)"/><path class="a" d="M26.08,13.35a2.84,2.84,0,0,0-.35-1.3,1.89,1.89,0,0,0-2.19-.75l.07.1A2.24,2.24,0,0,0,24,10.27a2.2,2.2,0,0,0-1.24-2c-.07,0-.15.07-.07.12a2.08,2.08,0,0,1,1.19,2,2.19,2.19,0,0,1-.36,1,.07.07,0,0,0,0,.1h.05a1.75,1.75,0,0,1,2.1.8A2.75,2.75,0,0,1,26,13.39a.07.07,0,0,0,.07.07.08.08,0,0,0,.07-.07Z" transform="translate(-0.17 -0.64)"/><path class="a" d="M17,11.29a1.38,1.38,0,0,1,1.23.18.06.06,0,0,0,.09,0,.07.07,0,0,0,0-.1h0a1.49,1.49,0,0,0-1.34-.19c-.08,0-.05.16,0,.13Z" transform="translate(-0.17 -0.64)"/><path class="a" d="M12.8,3.43a1.84,1.84,0,0,1,1.69-.1c.07,0,.15-.05.09-.11A1.56,1.56,0,0,0,13,2.9c-.09,0,0,.17,0,.13a1.45,1.45,0,0,1,1.5.29l.08-.11a2,2,0,0,0-1.83.09c-.07.05,0,.18.07.13Z" transform="translate(-0.17 -0.64)"/><path class="a" d="M23.6,3.2a2.29,2.29,0,0,0-1.78,0l.07.12c.37-.29,1-.59,1.46-.3a.06.06,0,0,0,.09,0,.07.07,0,0,0,0-.1h0a1.51,1.51,0,0,0-1.63.32c-.06,0,0,.14.07.12a2.11,2.11,0,0,1,1.67,0c.08,0,.15-.08.07-.12Z" transform="translate(-0.17 -0.64)"/><path class="a" d="M21.67,3.23a3.06,3.06,0,0,1,1.43-1.3l.26-.11s.21-.08.14-.1,0,.06.05.08a2.11,2.11,0,0,1,.21.46,2.24,2.24,0,0,1,.11,1.55c0,.09.11.13.14,0a2.83,2.83,0,0,0-.39-2.14.06.06,0,0,0-.08,0,3.27,3.27,0,0,0-2,1.54c0,.08.08.15.12.07Z" transform="translate(-0.17 -0.64)"/><path class="a" d="M24.76,3.39a9.47,9.47,0,0,0-.41-1.24,2.74,2.74,0,0,0-1-1.43c-.56-.28-1.19.19-1.6.54a7.14,7.14,0,0,0-.76.8,2,2,0,0,0-.38.49h-.14A4,4,0,0,0,20,2.48a1.64,1.64,0,0,0-1.12.29c-.07.06,0,.16.1.1a1.85,1.85,0,0,1,1.65-.2.06.06,0,0,0,.08,0A4.81,4.81,0,0,1,22.59.87c1-.42,1.51,1,1.77,1.69.1.29.19.57.27.87,0,.08.15,0,.13,0Z" transform="translate(-0.17 -0.64)"/><path class="a" d="M20,1.31a2.41,2.41,0,0,0-1.6,1.52c0,.09.1.12.13,0A2.18,2.18,0,0,1,20,1.45c.09,0,.05-.15,0-.14Z" transform="translate(-0.17 -0.64)"/><path class="a" d="M18.19,1.67a1.52,1.52,0,0,0-.66,1.27A.07.07,0,0,0,17.6,3a.08.08,0,0,0,.07-.07,1.38,1.38,0,0,1,.59-1.15C18.33,1.74,18.26,1.62,18.19,1.67Z" transform="translate(-0.17 -0.64)"/><path class="a" d="M16.26,1.49a1.91,1.91,0,0,1,1.29.68c.06.07.15,0,.1-.1a2.08,2.08,0,0,0-1.39-.72A.07.07,0,0,0,16.26,1.49Z" transform="translate(-0.17 -0.64)"/><path class="a" d="M16.8,2.46a3.75,3.75,0,0,0-.82,0s-.37.07-.27.12-.08-.11-.11-.14a11.41,11.41,0,0,0-1.27-1.33C14,.85,13.54.46,13.13.73a3.51,3.51,0,0,0-1,1.39,12,12,0,0,0-.57,1.34c0,.08.1.12.13,0a10,10,0,0,1,1.06-2.09c.22-.33.5-.72.94-.53a4.56,4.56,0,0,1,1.19,1c.26.27.5.55.74.85a.06.06,0,0,0,.08,0,2.06,2.06,0,0,1,1.1-.09C16.88,2.6,16.88,2.47,16.8,2.46Z" transform="translate(-0.17 -0.64)"/><path class="a" d="M14.81,3.16a3.57,3.57,0,0,0-.54-.69A3.74,3.74,0,0,0,13.68,2c-.16-.09-.53-.31-.71-.25s-.13.1-.17.17a3.16,3.16,0,0,0-.34.5,1.66,1.66,0,0,0-.18,1.42c0,.08.17,0,.14,0a1.57,1.57,0,0,1,.19-1.36A4,4,0,0,1,12.92,2c.09-.12.07-.11.21-.07a2.89,2.89,0,0,1,1.56,1.3.06.06,0,0,0,.09,0,.07.07,0,0,0,0-.09V3.16Z" transform="translate(-0.17 -0.64)"/><path class="a" d="M11.43,3.54c.24.11.48.22.72.36a1.46,1.46,0,0,1,.38.27,2.65,2.65,0,0,1,.26.5c0,.09.17,0,.14,0a1.47,1.47,0,0,0-.56-.8,7.16,7.16,0,0,0-.87-.45C11.42,3.42,11.35,3.5,11.43,3.54Z" transform="translate(-0.17 -0.64)"/><path class="a" d="M24.92,3.34a2,2,0,0,0-1.48,1.33.08.08,0,0,0,0,.1.1.1,0,0,0,.1,0V4.67A1.87,1.87,0,0,1,25,3.47c.08,0,.05-.15,0-.13Z" transform="translate(-0.17 -0.64)"/><path class="a" d="M16.21,16.42c.24.68,1,.53,1.46.23a.07.07,0,0,0-.06-.12h0c-.39.25-1.05.44-1.25-.14,0-.09-.17-.05-.14,0Z" transform="translate(-0.17 -0.64)"/><path class="a" d="M27.73,11.17c-.3,0,.32.83.35.87a6.21,6.21,0,0,1,.79,1.11,2.67,2.67,0,0,1-.13,2c0,.08.08.15.12.07a2.59,2.59,0,0,0,0-2.42c-.31-.44-.68-.84-.95-1.31,0,0-.07-.2-.11-.22s0,0-.06,0c.09,0,.09-.15,0-.14Z" transform="translate(-0.17 -0.64)"/><path class="a" d="M27.19,10a4.6,4.6,0,0,0,1.38.78,1.65,1.65,0,0,1,.79,1.07c0,.08.15,0,.13,0a2,2,0,0,0-.62-1,10.26,10.26,0,0,0-1-.49,2.78,2.78,0,0,1-.56-.41c-.07-.06-.16,0-.1.1Z" transform="translate(-0.17 -0.64)"/><path class="a" d="M7.2,9.55c-.17.13-.37.26-.55.38s-.55.24-.81.39A1.79,1.79,0,0,0,5,11.48a.07.07,0,0,0,.07.07.08.08,0,0,0,.07-.07,1.55,1.55,0,0,1,.36-.68,1.69,1.69,0,0,1,.69-.48,4.55,4.55,0,0,0,1.1-.65c.07-.06,0-.15-.1-.1Z" transform="translate(-0.17 -0.64)"/><path class="a" d="M6.69,10.77a6,6,0,0,1-.35.72c-.15.25-.31.5-.48.74a2.77,2.77,0,0,0-.49.7,2,2,0,0,0,.31,1.85c0,.07.17,0,.12-.07a1.71,1.71,0,0,1-.06-2.11,6.54,6.54,0,0,0,1.13-1.79c0-.08-.1-.12-.13,0Z" transform="translate(-0.17 -0.64)"/><path class="a" d="M14,12.92a1,1,0,0,1-.3.63c-.07.06,0,.16.1.1a1.11,1.11,0,0,0,.34-.73C14.17,12.84,14,12.84,14,12.92Z" transform="translate(-0.17 -0.64)"/><path class="a" d="M17.27,13.92a2.37,2.37,0,0,0,1.35.75,2.08,2.08,0,0,0,1.25-.15c.23-.1.42-.3.65-.38a1.39,1.39,0,0,1,.9,0c.08,0,.12-.1,0-.13a1.49,1.49,0,0,0-1.06,0c-.12.06-.23.18-.36.25a2.22,2.22,0,0,1-.45.2,2,2,0,0,1-.72.08,2.27,2.27,0,0,1-1.46-.74c-.06-.06-.16,0-.1.1Z" transform="translate(-0.17 -0.64)"/><path class="a" d="M15.75,14.1a2.49,2.49,0,0,0,.85,1c.7.49,1.38.12,1.86-.49.05-.07-.05-.17-.1-.1a1.45,1.45,0,0,1-1,.69,1.15,1.15,0,0,1-.81-.32,2.61,2.61,0,0,1-.66-.88c0-.08-.17,0-.12.07Z" transform="translate(-0.17 -0.64)"/><ellipse class="a" cx="15.76" cy="11.89" rx="0.08" ry="0.09"/><path class="a" d="M15.94,12.67a.1.1,0,0,1-.11-.11.1.1,0,0,1,.07-.13.11.11,0,0,1,.14.07v.06A.11.11,0,0,1,15.94,12.67Zm0-.17a.05.05,0,0,0,0,.06.05.05,0,0,0,0,.06v-.06c0-.06,0-.09,0-.09Z" transform="translate(-0.17 -0.64)"/><ellipse class="a" cx="15.3" cy="13.16" rx="0.08" ry="0.09" transform="translate(-3.69 5.25) rotate(-19.59)"/><path class="a" d="M15.31,13.27a.11.11,0,0,1-.11-.08.1.1,0,0,1,.06-.14.14.14,0,0,1,.09,0v.07h0a.12.12,0,0,1-.06.15h0Zm0-.17h0s0,.05,0,.07,0,.05.06,0a.09.09,0,0,0,0-.07h-.06Z" transform="translate(-0.17 -0.64)"/><ellipse class="a" cx="16.14" cy="13.24" rx="0.08" ry="0.09" transform="translate(-2.85 3.57) rotate(-13.72)"/><path class="a" d="M16.15,13.36a.11.11,0,0,1-.11-.09.14.14,0,0,1,0-.09h.15l0,.07h0a.13.13,0,0,1-.08.14Zm0-.18h0a0,0,0,0,0,.06.05c.06,0,0,0,0-.07h0Z" transform="translate(-0.17 -0.64)"/><ellipse class="a" cx="18.86" cy="12.52" rx="0.08" ry="0.09"/><path class="a" d="M19,13.27a.1.1,0,0,1-.1-.11A.1.1,0,0,1,19,13a.11.11,0,0,1,.14.07v.06A.11.11,0,0,1,19,13.27Zm0-.17s-.06,0-.05.06a.05.05,0,0,0,.05.06.06.06,0,0,0,0-.06S19.06,13.1,19,13.1Z" transform="translate(-0.17 -0.64)"/><ellipse class="a" cx="18.39" cy="13.79" rx="0.08" ry="0.09" transform="translate(-3.73 6.33) rotate(-19.59)"/><path class="a" d="M18.41,13.9h0a.11.11,0,0,1-.06-.07.1.1,0,0,1,.06-.14h.08l.06.07h0a.11.11,0,0,1-.06.14Zm0-.17h0a0,0,0,0,0,0,.07h0a.09.09,0,0,0,0-.07Z" transform="translate(-0.17 -0.64)"/><ellipse class="a" cx="19.24" cy="13.87" rx="0.08" ry="0.09" transform="translate(-2.91 4.32) rotate(-13.72)"/><path class="a" d="M19.25,14h-.06s0,0-.05-.07a.07.07,0,0,1,0-.09.13.13,0,0,1,.07-.05.13.13,0,0,1,.12.09h0a.13.13,0,0,1-.07.14h0Zm0-.18h0m0,0h0a.08.08,0,0,0,0-.07s0,0,0,0Z" transform="translate(-0.17 -0.64)"/><path class="a" d="M14.07,13.33a3.9,3.9,0,0,0,2.72.8,1.32,1.32,0,0,0,.53-.17c.13-.1.1-.32.13-.48s0-.07-.05-.08a1.37,1.37,0,0,1-.56-.56,3,3,0,0,1-.31-.48.5.5,0,0,1,.11-.45.69.69,0,0,1,.91,0,.07.07,0,0,0,.09,0,.78.78,0,0,1,1.08.14h0a.7.7,0,0,1-.1.66,1.43,1.43,0,0,1-1.2.65.08.08,0,0,0-.07.07.07.07,0,0,0,.07.07h0a1.62,1.62,0,0,0,1.3-.67c.17-.29.31-.74,0-1a.94.94,0,0,0-1-.12s-.12,0-.14.06h0a1.74,1.74,0,0,0-.26-.15c-.46-.19-1.16.11-1,.7a1.87,1.87,0,0,0,.33.54,1.53,1.53,0,0,0,.64.62l-.05-.08v.39a1.46,1.46,0,0,1-.49.15,3.72,3.72,0,0,1-2.61-.78.08.08,0,0,0-.1,0,.07.07,0,0,0,0,.1h0Z" transform="translate(-0.17 -0.64)"/><path class="a" d="M18.87,11.58a4.78,4.78,0,0,1,2,1c.07.07.19-.05.12-.12a5.16,5.16,0,0,0-2.12-1.05.09.09,0,0,0-.06.12S18.84,11.58,18.87,11.58Z" transform="translate(-0.17 -0.64)"/><path class="a" d="M20.52,10.3c-.71,0-1.24,1-1.32,1.18,1.2,1,1.68.75,1.68.74a5.45,5.45,0,0,0,.77-.75h0c.11-.05.18-.11.18-.17s-.11-.15-.15-.17h0C21.31,10.55,20.92,10.27,20.52,10.3Zm-.3,1a.13.13,0,0,1-.15-.13h0A.14.14,0,0,1,20.2,11h0a.15.15,0,0,1,.17.1.14.14,0,0,1-.1.17Zm.44.23a.29.29,0,1,1,.29-.29.29.29,0,0,1-.25.33h0Z" transform="translate(-0.17 -0.64)"/><path class="a" d="M16.12,11.15a5,5,0,0,0-2.11,1c-.07.08,0,.2.12.12a4.67,4.67,0,0,1,2-1,.08.08,0,0,0,.05-.1.09.09,0,0,0-.1-.06Z" transform="translate(-0.17 -0.64)"/><path class="a" d="M15.87,11.21S15.31,10,14.51,10a1.48,1.48,0,0,0-1.2.85s-.18.1-.18.22.08.15.22.21a4.61,4.61,0,0,0,.77.76.28.28,0,0,0,.18,0,2.77,2.77,0,0,0,1.57-.76h0Zm-1.52.09a.29.29,0,1,1,.29-.29h0a.29.29,0,0,1-.27.29Zm.44-.22a.13.13,0,0,1-.13-.15.14.14,0,0,1,.15-.13.14.14,0,0,1,0,.28Z" transform="translate(-0.17 -0.64)"/><path class="a" d="M18.69,11.86a.94.94,0,0,0-1-.12.46.46,0,0,0-.14.07h0l-.18-.14c-.47-.19-1.16.1-1,.7a1.53,1.53,0,0,0,.33.53,1.47,1.47,0,0,0,.63.63h.06a1.55,1.55,0,0,0,1.3-.67A.77.77,0,0,0,18.69,11.86Zm-.43.35c-.08,0-.14-.09-.12-.11s.08,0,.16,0,.14.08.13.11S18.34,12.24,18.26,12.21Z" transform="translate(-0.17 -0.64)"/></svg>