<svg xmlns="http://www.w3.org/2000/svg" viewBox="0 0 62.44 20.93"><defs><style>.cls-1{fill:#811810;stroke:#811812;stroke-miterlimit:10;stroke-width:0.25px;}.cls-2{fill:#821810;}.cls-3{fill:#fff;}</style></defs><g id="Capa_2" data-name="Capa 2"><g id="Capa_5" data-name="Capa 5"><path class="cls-1" d="M30.76,5.78c0-.37-.17-.55-.52-.55h-.17a.15.15,0,0,1-.15,0q-.06-.09.21-.12l.19,0a.63.63,0,0,1,.63.4,1.11,1.11,0,0,1,.07.43,1.38,1.38,0,0,1-.22.65,2.35,2.35,0,0,1-1.23,1.06,1.4,1.4,0,0,1-1.2,0,1.55,1.55,0,0,1-.82-.93A2,2,0,0,1,27.46,6a2.84,2.84,0,0,1,.22-1,4.67,4.67,0,0,1,1.63-2,4,4,0,0,1,2.27-.88,1.17,1.17,0,0,1,1.19.72,1.73,1.73,0,0,1,.14.75c0,.1,0,.2,0,.3a6.91,6.91,0,0,1-.41,1.59.74.74,0,0,0-.06.2s0,0,0,0,.07,0,.13-.16a12.85,12.85,0,0,1,1.3-1.94,2.22,2.22,0,0,1,.56-.45A1.39,1.39,0,0,1,35.09,3a.53.53,0,0,1,.44.2.89.89,0,0,1,.17.56,10,10,0,0,1-.63,2.69c-.09.25-.14.41-.16.48a26.38,26.38,0,0,1,1.62-2.24,4.13,4.13,0,0,1,1.74-1.44,1.2,1.2,0,0,1,.24,0,.38.38,0,0,1,.39.31.88.88,0,0,1,0,.24,2.36,2.36,0,0,1-.32,1,15.71,15.71,0,0,0-.89,2.09,5.64,5.64,0,0,0-.33,1.4,2.65,2.65,0,0,0,.07.62.69.69,0,0,0,.76.49h.14c.06,0,.1,0,.11,0s0,0-.06.07a.31.31,0,0,1-.13,0h-.11a1.2,1.2,0,0,1-1.26-1.29,3.1,3.1,0,0,1,.17-1c.11-.35.21-.63.29-.82s.4-.92.81-1.82a2.19,2.19,0,0,0,.21-.76c0-.18-.07-.27-.22-.27s-.53.22-1,.64c-.22.23-.47.5-.73.82a20,20,0,0,0-1.15,1.7,12.9,12.9,0,0,0-1,1.7c-.12.29-.28.43-.49.43s-.23-.05-.25-.15a.09.09,0,0,1,0-.1l.15-.27L34,7.91c.09-.17.2-.41.33-.7s.24-.59.34-.89A10.82,10.82,0,0,0,35.2,4a3,3,0,0,0,0-.34.46.46,0,0,0-.11-.32.31.31,0,0,0-.23-.12c-.26,0-.55.19-.86.59a13.21,13.21,0,0,0-1.11,1.55c-.31.51-.55.94-.72,1.28s-.37.77-.59,1.25-.33.75-.35.78a.61.61,0,0,1-.05.12.53.53,0,0,0-.06.14.45.45,0,0,1-.45.23c-.13,0-.21,0-.22-.13a.43.43,0,0,0,0,0,15,15,0,0,0,1.17-2.47,9.79,9.79,0,0,0,.81-3c0-.77-.31-1.15-.94-1.15A3.13,3.13,0,0,0,30,2.9a5,5,0,0,0-1.53,1.49,3.11,3.11,0,0,0-.36.7,3.2,3.2,0,0,0-.21,1,1.35,1.35,0,0,0,.69,1.36,1.07,1.07,0,0,0,.49.12,1.62,1.62,0,0,0,1.41-.94A1.6,1.6,0,0,0,30.76,5.78Z" transform="translate(0)"/><path class="cls-1" d="M38.7,8.47A.51.51,0,0,0,39,8.31a4.84,4.84,0,0,0,.75-1.2c0-.08.08-.11.12-.07s0,0,0,0a.67.67,0,0,1-.06.17c-.05.1-.08.18-.12.25a3,3,0,0,1-.2.37,2.55,2.55,0,0,1-.27.39.85.85,0,0,1-.62.37.48.48,0,0,1-.41-.17.64.64,0,0,1-.13-.4,1.24,1.24,0,0,1,.1-.47l.51-1.3a.39.39,0,0,0,0-.13.38.38,0,0,0-.1-.21h.44c.12,0,.2,0,.22.06s0,.12-.05.22l-.64,1.49a1.27,1.27,0,0,0-.13.5A.21.21,0,0,0,38.7,8.47Zm.79-2.94a.36.36,0,0,1-.25.1.27.27,0,0,1-.22-.1A.3.3,0,0,1,39,5.3a.36.36,0,0,1,.13-.23.42.42,0,0,1,.25-.1.29.29,0,0,1,.22.1.24.24,0,0,1,.06.23A.36.36,0,0,1,39.49,5.53Z" transform="translate(0)"/><path class="cls-1" d="M42.67,5a3.55,3.55,0,0,0-.39,1.49q0,1.35.93,1.65a2.08,2.08,0,0,0,.55.07,2.36,2.36,0,0,0,.58-.07,3.31,3.31,0,0,0,1-.46,1.47,1.47,0,0,0,.57-.58c.21-.49.44-.74.69-.74s.2.07.25.21a.32.32,0,0,1,0,.17,4.68,4.68,0,0,1-.34,1.24,15.33,15.33,0,0,1-.74,1.4,6.88,6.88,0,0,1,1.75.21c.11,0,.16.06.16.11s-.07.07-.23,0a6.54,6.54,0,0,0-1.59-.14h-.21a4.79,4.79,0,0,1-1.29,1.24,5.58,5.58,0,0,1-1.58.74,3.16,3.16,0,0,1-.72.11,1.47,1.47,0,0,1-.5-.07c-.39-.15-.58-.34-.58-.57a.49.49,0,0,1,.06-.22,2.09,2.09,0,0,1,1.13-.89,5.18,5.18,0,0,1,1.47-.42,12.59,12.59,0,0,1,1.73-.13,6.76,6.76,0,0,0,.8-2l0-.13a4.73,4.73,0,0,1-.86.65,4,4,0,0,1-.84.39,3.1,3.1,0,0,1-.95.19,1.8,1.8,0,0,1-.65-.11,1.52,1.52,0,0,1-.83-.7,2.49,2.49,0,0,1-.35-1.33,4.08,4.08,0,0,1,.41-1.67,1.64,1.64,0,0,1-.53-1.15,1.7,1.7,0,0,1,.5-1.16c.06-.07.11-.1.14-.08s0,.07,0,.14a1.6,1.6,0,0,0-.36,1,1.56,1.56,0,0,0,.42,1l.17-.31a4.13,4.13,0,0,1,1.7-1.56,3.51,3.51,0,0,1,1.62-.43,3.11,3.11,0,0,1,.43,0A1.74,1.74,0,0,1,47.61,3a1.22,1.22,0,0,1,.14.59,1.43,1.43,0,0,1-.19.68A2.48,2.48,0,0,1,46,5.33a4.11,4.11,0,0,1-1.21.17A3.68,3.68,0,0,1,42.67,5Zm-1.24,6.1c0,.15.12.25.38.3a1.27,1.27,0,0,0,.28,0A3.46,3.46,0,0,0,43.53,11a4.19,4.19,0,0,0,1.75-1.43,11.64,11.64,0,0,0-1.47.13,4.42,4.42,0,0,0-1.74.66C41.64,10.61,41.43,10.85,41.43,11.05ZM46,2.35a2.84,2.84,0,0,0-1.45.47,4.47,4.47,0,0,0-1.75,1.92,2.33,2.33,0,0,0,.87.41,3.45,3.45,0,0,0,.78.12A3.36,3.36,0,0,0,47,4.37a1.37,1.37,0,0,0,.43-.93,1,1,0,0,0-.82-1A2.11,2.11,0,0,0,46,2.35Z" transform="translate(0)"/><path class="cls-1" d="M48.51,5.44a.88.88,0,0,1-.45.68h.43a6.18,6.18,0,0,0,.67,0,.31.31,0,0,1,0,.13,1,1,0,0,1-.1.31c-.06.14-.12.25-.17.35l-.14.28c-.05.09-.1.2-.16.32l-.14.36c-.13.4-.11.6.07.6s.55-.44,1-1.33c0-.07.07-.1.09-.08s0,0,0,.06a1.36,1.36,0,0,1-.11.25l-.22.43a3.17,3.17,0,0,1-.38.52.79.79,0,0,1-.58.37c-.21,0-.35-.13-.43-.38a.55.55,0,0,1,0-.21,1.24,1.24,0,0,1,.1-.39,3.45,3.45,0,0,1,.29-.58,4.42,4.42,0,0,0,.22-.4.27.27,0,0,0,0-.12c0-.16-.22-.25-.64-.26l-.1.25a5.06,5.06,0,0,1-1,1.77c-.05.05-.08,0-.08-.05l0,0a5.83,5.83,0,0,0,.77-1.4A7.2,7.2,0,0,0,48,5.29c0-.16.11-.24.22-.24a.27.27,0,0,1,.26.22A.44.44,0,0,1,48.51,5.44Z" transform="translate(0)"/><path class="cls-1" d="M51.53,7.13a3.32,3.32,0,0,0-.31.76,1.66,1.66,0,0,0,0,.4c0,.11,0,.16.12.16s.22-.09.37-.28a5.57,5.57,0,0,0,.65-1.06c0-.05,0-.08.07-.08s.06,0,.06,0a.18.18,0,0,1,0,.09c-.49,1-.9,1.49-1.24,1.49a.43.43,0,0,1-.37-.23.58.58,0,0,1-.08-.32,2,2,0,0,1,.08-.48c-.42.68-.79,1-1.1,1a.4.4,0,0,1-.23-.08A.66.66,0,0,1,49.24,8a2.52,2.52,0,0,1,.68-1.59,1.76,1.76,0,0,1,.94-.58,1,1,0,0,1,.29,0,.83.83,0,0,1,.62.25.15.15,0,0,1,0,.17.11.11,0,0,1-.13.07A.37.37,0,0,0,51.3,6q-.34,0-.84.54a3.89,3.89,0,0,0-.54.75,1.78,1.78,0,0,0-.31.83c0,.21.06.32.2.32.32,0,.74-.49,1.25-1.47a1.72,1.72,0,0,1,.26-.41.36.36,0,0,1,.26-.11l.17,0a.66.66,0,0,0,.19,0A3.23,3.23,0,0,0,51.53,7.13Z" transform="translate(0)"/><path class="cls-1" d="M54.72,6a6.66,6.66,0,0,0-1,2.25q0,.21.15.21c.27,0,.64-.46,1.1-1.38,0-.08.06-.1.09-.09s.05,0,.05.07a.23.23,0,0,1,0,.09,5.85,5.85,0,0,1-.72,1.18.79.79,0,0,1-.58.32.48.48,0,0,1-.44-.22.41.41,0,0,1-.08-.28,1.33,1.33,0,0,1,.08-.44,4,4,0,0,1,.44-.83.57.57,0,0,0,.08-.23s0-.08-.13-.08-.27.12-.52.36a5.3,5.3,0,0,0-1.11,1.58.21.21,0,0,1-.11.1l-.24,0a.55.55,0,0,0-.23,0c.09-.17.25-.52.51-1a9.29,9.29,0,0,1,.87-1.6A.4.4,0,0,1,53.19,6l.16,0a.47.47,0,0,0,.2,0,4.48,4.48,0,0,0-1,1.5,7.53,7.53,0,0,1,.68-.74A4.79,4.79,0,0,1,54,6.24,1.57,1.57,0,0,1,54.63,6Z" transform="translate(0)"/><path class="cls-1" d="M55.36,6.3a.24.24,0,0,0,0-.13.38.38,0,0,0-.1-.21h.44c.12,0,.19,0,.22.06s0,.12,0,.22l-.64,1.49c-.13.31-.3.67-.5,1.06l.46-.19a1.85,1.85,0,0,0,.35-.23A1.88,1.88,0,0,0,55.91,8c.1-.14.26-.44.5-.88,0-.08.07-.1.1-.09a.08.08,0,0,1,0,.07,1.55,1.55,0,0,1-.13.3c-.09.18-.18.35-.27.5a2.86,2.86,0,0,1-.35.47,1.79,1.79,0,0,1-.48.39,6.61,6.61,0,0,1-.7.3,5.84,5.84,0,0,1-1.25,1.65,2.61,2.61,0,0,1-.57.34,1.72,1.72,0,0,1-.68.14.88.88,0,0,1-.55-.15.47.47,0,0,1-.19-.36,1.16,1.16,0,0,1,.12-.47,1.48,1.48,0,0,1,.75-.65,5.64,5.64,0,0,1,1.08-.36L54.19,9a4.66,4.66,0,0,0,.24-.42L55,7.35c-.09,0-.11,0-.07-.13Zm-3.71,4.07a.88.88,0,0,0-.08.32.25.25,0,0,0,.11.23A.4.4,0,0,0,52,11a1.56,1.56,0,0,0,1-.48A5.14,5.14,0,0,0,54,9.22a16.83,16.83,0,0,0-1.65.49A1.42,1.42,0,0,0,51.65,10.37Zm4.44-4.84a.36.36,0,0,1-.25.1.26.26,0,0,1-.21-.09.25.25,0,0,1-.07-.15.71.71,0,0,1,0-.14.3.3,0,0,1,.13-.18.37.37,0,0,1,.24-.1.28.28,0,0,1,.22.09.21.21,0,0,1,.07.15.71.71,0,0,1,0,.14A.34.34,0,0,1,56.09,5.53Z" transform="translate(0)"/><path class="cls-1" d="M56.71,8.47A.51.51,0,0,0,57,8.31a4.84,4.84,0,0,0,.75-1.2c0-.08.08-.11.11-.07a.06.06,0,0,1,0,0,.67.67,0,0,1-.06.17l-.12.25a3,3,0,0,1-.2.37,2.55,2.55,0,0,1-.27.39.87.87,0,0,1-.62.37.51.51,0,0,1-.42-.17.7.7,0,0,1-.12-.4,1.24,1.24,0,0,1,.1-.47l.51-1.3a.39.39,0,0,0,0-.13.38.38,0,0,0-.1-.21h.44c.12,0,.2,0,.22.06s0,.12,0,.22L56.6,7.73a1.32,1.32,0,0,0-.14.5A.22.22,0,0,0,56.71,8.47Zm.78-2.94a.33.33,0,0,1-.24.1.26.26,0,0,1-.22-.1A.3.3,0,0,1,57,5.3a.36.36,0,0,1,.13-.23.42.42,0,0,1,.25-.1.3.3,0,0,1,.22.1.24.24,0,0,1,.06.23A.37.37,0,0,1,57.49,5.53Z" transform="translate(0)"/><path class="cls-1" d="M57.59,8a6.89,6.89,0,0,1,.64-2.22h-.42a.05.05,0,0,1-.05,0,.14.14,0,0,1,0-.09.05.05,0,0,1,.06,0h.48a11.54,11.54,0,0,1,.53-1.06A2,2,0,0,1,59.3,4a.66.66,0,0,1,.3-.15l.13,0a.37.37,0,0,1,.19.36,1.72,1.72,0,0,1-.19.67c-.12.26-.24.5-.36.73h.39a.05.05,0,0,1,.05,0,.14.14,0,0,1,0,.09.05.05,0,0,1-.06,0h-.46A5.73,5.73,0,0,1,58.21,7.1L58,7.91a.75.75,0,0,0,0,.21.39.39,0,0,0,.05.2.2.2,0,0,0,.18.11.66.66,0,0,0,.3-.1,3.44,3.44,0,0,0,.85-1.21s0-.07.07-.08,0,0,.06,0a.36.36,0,0,1,0,.11,6.18,6.18,0,0,1-.41.78c-.29.47-.6.7-.92.7a.52.52,0,0,1-.41-.18A.69.69,0,0,1,57.59,8Zm1.5-2.22h-.37c-.07.15-.21.5-.43,1.06A6.12,6.12,0,0,0,59.09,5.78Zm.11-.17a3.41,3.41,0,0,0,.52-1.32c0-.1,0-.15,0-.15s-.15.08-.27.25a9,9,0,0,0-.6,1.22Z" transform="translate(0)"/><path class="cls-1" d="M61.41,7.13a3.47,3.47,0,0,0-.32.76,2.4,2.4,0,0,0-.05.4c0,.11,0,.16.12.16s.23-.09.38-.28a5.58,5.58,0,0,0,.64-1.06c0-.05,0-.08.08-.08s.06,0,.06,0a.51.51,0,0,1,0,.09c-.49,1-.91,1.49-1.24,1.49a.44.44,0,0,1-.38-.23.58.58,0,0,1-.07-.32,2,2,0,0,1,.08-.48c-.43.68-.79,1-1.1,1a.36.36,0,0,1-.23-.08A.66.66,0,0,1,59.12,8a2.46,2.46,0,0,1,.68-1.59,1.73,1.73,0,0,1,.94-.58,1,1,0,0,1,.29,0,.84.84,0,0,1,.62.25.17.17,0,0,1,.05.17c0,.06-.07.08-.14.07A.36.36,0,0,0,61.18,6c-.23,0-.51.18-.85.54a4.34,4.34,0,0,0-.53.75,1.82,1.82,0,0,0-.32.83c0,.21.07.32.2.32q.48,0,1.26-1.47a1.76,1.76,0,0,1,.25-.41.37.37,0,0,1,.27-.11l.16,0a.73.73,0,0,0,.2,0A2.51,2.51,0,0,0,61.41,7.13Z" transform="translate(0)"/><path class="cls-1" d="M42.17,13.87A1.45,1.45,0,0,1,43,15.09a1.81,1.81,0,0,1-.63,1.2,3.45,3.45,0,0,1-.85.64,3.62,3.62,0,0,1-1,.4,6.6,6.6,0,0,1-1.5.2h-.29A9.54,9.54,0,0,1,37.58,19a2.82,2.82,0,0,1-2,.85c-.69,0-1.11-.19-1.27-.57a.75.75,0,0,1-.06-.31.62.62,0,0,1,.18-.39,1,1,0,0,1,.81-.33,2.24,2.24,0,0,1,.7.12c.09,0,.13.07.1.1s-.09,0-.21,0a1.31,1.31,0,0,0-.43-.06.62.62,0,0,0-.46.19.6.6,0,0,0-.19.42.57.57,0,0,0,0,.18c.08.29.33.43.72.43a2.55,2.55,0,0,0,1.76-.83,8.21,8.21,0,0,0,1.38-2.16c.2-.39.45-.82.74-1.3a9,9,0,0,1,.89-1.22l.15-.15.28-.3a9.65,9.65,0,0,0-1.23-.08,7,7,0,0,0-1.24.11,8.48,8.48,0,0,0-1,.25,6.51,6.51,0,0,0-.87.39,2.31,2.31,0,0,0-.75.59,1.47,1.47,0,0,0-.4,1,.83.83,0,0,0,.22.57.72.72,0,0,0,.59.28,1.09,1.09,0,0,0,.71-.28,1.6,1.6,0,0,0,.48-.69s0-.06,0-.07,0,0,0,0a.15.15,0,0,1,0,.08,1,1,0,0,1-.4.82,1.42,1.42,0,0,1-.88.3,1.25,1.25,0,0,1-.88-.32,1.07,1.07,0,0,1-.35-.82,1.53,1.53,0,0,1,.25-.84,2.25,2.25,0,0,1,.59-.6,5.82,5.82,0,0,1,.79-.42,7.11,7.11,0,0,1,1.6-.42,9.65,9.65,0,0,1,1.56-.13,6.9,6.9,0,0,1,1.33.13,1.9,1.9,0,0,1,.51-.3,1,1,0,0,1,.24-.08h0s0,0,0,.05a.74.74,0,0,1-.19.15,3.31,3.31,0,0,0-.3.25A3.86,3.86,0,0,1,42.17,13.87ZM39,17.35a4.63,4.63,0,0,0,1.26-.2,3.92,3.92,0,0,0,1.21-.6,2.13,2.13,0,0,0,1-1.6c0-.62-.48-1-1.42-1.27-.3.42-.68,1.05-1.16,1.9s-.82,1.43-1,1.77Z" transform="translate(0)"/><path class="cls-1" d="M43.62,18a3.47,3.47,0,0,0-.32.76,2.63,2.63,0,0,0,0,.41c0,.1,0,.16.12.16s.22-.1.37-.28A5.68,5.68,0,0,0,44.39,18a.19.19,0,0,1,.07-.08s.07,0,.07.05a.22.22,0,0,1,0,.1c-.49,1-.9,1.48-1.24,1.48a.43.43,0,0,1-.37-.22.61.61,0,0,1-.07-.32,1.65,1.65,0,0,1,.08-.49c-.43.69-.8,1-1.11,1a.34.34,0,0,1-.23-.08.64.64,0,0,1-.24-.57A2.52,2.52,0,0,1,42,17.28a1.83,1.83,0,0,1,1-.59,1.45,1.45,0,0,1,.28,0,.86.86,0,0,1,.63.26c0,.06.07.12,0,.17s-.06.07-.13.06a.38.38,0,0,0-.39-.29,1.38,1.38,0,0,0-.84.55,4.52,4.52,0,0,0-.54.75,1.75,1.75,0,0,0-.31.83c0,.21.07.31.2.31.32,0,.74-.49,1.25-1.47a2,2,0,0,1,.26-.4.36.36,0,0,1,.26-.11l.17,0a.43.43,0,0,0,.19,0A3.18,3.18,0,0,0,43.62,18Z" transform="translate(0)"/><path class="cls-1" d="M45.47,16.3A.86.86,0,0,1,45,17h.43a6.21,6.21,0,0,0,.68,0,.38.38,0,0,1,0,.13.88.88,0,0,1-.09.31c-.07.13-.12.25-.17.35l-.15.28-.15.32c-.06.13-.1.25-.14.35-.13.41-.11.61.06.61s.56-.45,1-1.33c0-.07.07-.1.1-.08a.06.06,0,0,1,0,.06,1,1,0,0,1-.1.24l-.23.44a2.56,2.56,0,0,1-.37.52.84.84,0,0,1-.58.37.46.46,0,0,1-.44-.38,1.09,1.09,0,0,1,0-.22,1.18,1.18,0,0,1,.09-.38,4.43,4.43,0,0,1,.29-.58c.14-.23.21-.37.23-.41a.43.43,0,0,0,0-.11c0-.17-.21-.26-.64-.27l-.09.26a5.23,5.23,0,0,1-1,1.77s-.08,0-.08-.05a.14.14,0,0,1,0-.06,6.38,6.38,0,0,0,.77-1.4A7.74,7.74,0,0,0,45,16.16c0-.17.1-.25.22-.25s.2.08.26.23A.7.7,0,0,1,45.47,16.3Z" transform="translate(0)"/><path class="cls-1" d="M48.49,18a3.47,3.47,0,0,0-.32.76,2.63,2.63,0,0,0-.05.41c0,.1,0,.16.12.16s.23-.1.38-.28A5.69,5.69,0,0,0,49.26,18s.05-.07.08-.08.06,0,.06.05a.44.44,0,0,1,0,.1c-.49,1-.91,1.48-1.24,1.48a.43.43,0,0,1-.38-.22.72.72,0,0,1-.07-.32,2.06,2.06,0,0,1,.08-.49c-.43.69-.79,1-1.1,1a.32.32,0,0,1-.23-.08.64.64,0,0,1-.24-.57,2.46,2.46,0,0,1,.68-1.59,1.8,1.8,0,0,1,.94-.59,1.55,1.55,0,0,1,.29,0,.85.85,0,0,1,.62.26.17.17,0,0,1,.05.17c0,.05-.07.07-.14.06a.37.37,0,0,0-.38-.29c-.23,0-.51.19-.85.55a4,4,0,0,0-.53.75,1.79,1.79,0,0,0-.32.83c0,.21.07.31.2.31q.48,0,1.26-1.47a2,2,0,0,1,.25-.4.37.37,0,0,1,.27-.11l.16,0a.47.47,0,0,0,.2,0A3.09,3.09,0,0,0,48.49,18Z" transform="translate(0)"/><path class="cls-1" d="M49.58,19.33a.51.51,0,0,0,.32-.15A5.67,5.67,0,0,0,50.65,18c0-.08.07-.1.11-.07a.08.08,0,0,1,0,.05.74.74,0,0,1-.07.18l-.11.25-.2.36a2.55,2.55,0,0,1-.27.39.91.91,0,0,1-.62.38.47.47,0,0,1-.42-.18.63.63,0,0,1-.13-.39,1.27,1.27,0,0,1,.11-.47l.51-1.3a.53.53,0,0,0,0-.13.43.43,0,0,0-.09-.21h.44c.12,0,.19,0,.21.07a.23.23,0,0,1,0,.21l-.64,1.5a1.2,1.2,0,0,0-.13.5C49.33,19.25,49.41,19.33,49.58,19.33Zm.78-2.93a.42.42,0,0,1-.25.1.27.27,0,0,1-.21-.1.27.27,0,0,1-.07-.23.37.37,0,0,1,.14-.23.35.35,0,0,1,.25-.1.27.27,0,0,1,.22.1.3.3,0,0,1,.06.23A.43.43,0,0,1,50.36,16.4Z" transform="translate(0)"/><path class="cls-1" d="M51.34,19.36h.15a.85.85,0,0,0,.63-.37,8.63,8.63,0,0,0,.6-1.05.05.05,0,0,1,.05,0s.07,0,.07.06a.42.42,0,0,1,0,.09,1,1,0,0,0-.07.15c0,.05-.06.12-.1.22s-.09.17-.13.23l-.13.22a1.16,1.16,0,0,1-.16.2l-.17.17a.65.65,0,0,1-.32.19.93.93,0,0,1-.57,0,.88.88,0,0,1-.33.08.62.62,0,0,1-.69-.45,1.69,1.69,0,0,1,0-.25.44.44,0,0,1,.1-.28.35.35,0,0,1,.21-.15c.27-.51.5-1,.7-1.4s.46-.67.74-.67a.44.44,0,0,1,.22.05c.07,0,.1.07.08.11s-.06.05-.12,0a.34.34,0,0,0-.15,0l-.11,0a.55.55,0,0,0-.27.55,1,1,0,0,0,.06.37,2.89,2.89,0,0,0,.15.31,1.81,1.81,0,0,1,.18.68,1,1,0,0,1-.17.52A1.46,1.46,0,0,1,51.34,19.36Zm-.87-.28a.41.41,0,0,0,0,.11.28.28,0,0,0,.3.21.33.33,0,0,0,.15,0,.69.69,0,0,1-.31-.6A.43.43,0,0,0,50.47,19.08Zm.6.22a1,1,0,0,0,.35-.88c0-.16,0-.39-.05-.68a5.26,5.26,0,0,1-.06-.58,1.1,1.1,0,0,1,0-.21l-.75,1.48c.11,0,.17.08.17.24A.64.64,0,0,0,51.07,19.3Z" transform="translate(0)"/><path class="cls-1" d="M54.15,16.71c.39,0,.59.25.59.74a1.66,1.66,0,0,1-.18.71,2.79,2.79,0,0,1-.67.95.4.4,0,0,0,.38.2.52.52,0,0,0,.4-.22,2.28,2.28,0,0,0,.35-.43l.15-.28.12-.25a1.12,1.12,0,0,1,.1-.2s0,0,0,0,.08,0,.08.06a.08.08,0,0,1,0,.06l0,.11a1.58,1.58,0,0,0-.07.16l-.09.17a1.54,1.54,0,0,1-.1.19l-.12.2a1.89,1.89,0,0,1-.14.19l-.15.16a.61.61,0,0,1-.16.13.76.76,0,0,1-.38.12.66.66,0,0,1-.51-.2,1.19,1.19,0,0,1-.68.27c-.39,0-.58-.25-.58-.74a1.87,1.87,0,0,1,.17-.72,2.71,2.71,0,0,1,.68-.95A1.26,1.26,0,0,1,54.15,16.71Zm.09.25a.8.8,0,0,0-.51.29,2.66,2.66,0,0,0-.53.78,2.4,2.4,0,0,0-.28.94c0,.25.1.37.28.37a.68.68,0,0,0,.45-.22.7.7,0,0,1-.13-.39c0-.23.11-.34.28-.34a.21.21,0,0,1,.17.07.19.19,0,0,1,.07.13.62.62,0,0,1,0,.13,6.46,6.46,0,0,0,.31-.57,1.85,1.85,0,0,0,.2-.8Q54.54,17,54.24,17Z" transform="translate(0)"/><path class="cls-2" d="M12.35,12.85c-.37-.13-.92-1.1-.92-1.1a.57.57,0,0,1,.34-.65.84.84,0,0,1,.81.16.9.9,0,0,1,1,0c.51.33.09.94.09.94s-.24.61-1.26.68" transform="translate(0)"/><path class="cls-2" d="M12.37,12.78a1.58,1.58,0,0,1-.56-.56,2.73,2.73,0,0,1-.3-.48.51.51,0,0,1,.1-.45.68.68,0,0,1,.92,0,.06.06,0,0,0,.08,0,.77.77,0,0,1,1.09.15.69.69,0,0,1-.1.66,1.45,1.45,0,0,1-1.2.65.07.07,0,0,0,0,.14,1.59,1.59,0,0,0,1.3-.67.79.79,0,0,0,0-1,.91.91,0,0,0-1-.12s-.12,0-.14.06,0,0,0,0a.93.93,0,0,0-.26-.15c-.46-.19-1.16.11-1,.7a2.3,2.3,0,0,0,.33.54,1.73,1.73,0,0,0,.64.62c.09,0,.12-.1,0-.13Z" transform="translate(0)"/><path class="cls-2" d="M10.22,16.9a7.16,7.16,0,0,0,1,3c0,.07.16,0,.12-.07a6.84,6.84,0,0,1-1-2.9c0-.09-.15-.09-.14,0Z" transform="translate(0)"/><path class="cls-2" d="M9.29,18.68c-.27.71-.34,1.79.5,2.14.08,0,.15-.08.07-.12-.78-.33-.68-1.33-.43-2,0-.08-.11-.12-.14,0Z" transform="translate(0)"/><path class="cls-2" d="M14.51,17a7.18,7.18,0,0,1-.92,2.86c-.05.07.07.14.12.07a7.35,7.35,0,0,0,.94-2.89c0-.09-.12-.13-.14,0Z" transform="translate(0)"/><path class="cls-2" d="M15.43,18.89a1.45,1.45,0,0,1-.38,1.9.07.07,0,1,0,.07.12,1.58,1.58,0,0,0,.43-2.09c0-.08-.15,0-.12.07Z" transform="translate(0)"/><path class="cls-2" d="M6.72,15.46a2,2,0,0,0-.22,1A3.8,3.8,0,0,0,7.74,19c.06.06.16,0,.1-.1a3.66,3.66,0,0,1-1.2-2.4,1.7,1.7,0,0,1,.2-.92.07.07,0,1,0-.12-.07Z" transform="translate(0)"/><path class="cls-2" d="M5.9,15.11a3.27,3.27,0,0,0-.58,1.2,2.75,2.75,0,0,0,.58,2.43c.06.07.16,0,.1-.09a2.65,2.65,0,0,1-.51-2.43,3.1,3.1,0,0,1,.51-1c.06-.07,0-.17-.1-.1Z" transform="translate(0)"/><path class="cls-2" d="M4.4,15.86a3.48,3.48,0,0,0-.25,4c0,.07.17,0,.12-.07A3.34,3.34,0,0,1,4.5,16c.06-.07,0-.17-.1-.1Z" transform="translate(0)"/><path class="cls-2" d="M3.63,17.2A2,2,0,0,0,3.35,19a.07.07,0,0,0,.14,0,1.81,1.81,0,0,1,.24-1.67c.06-.07,0-.16-.1-.1Z" transform="translate(0)"/><path class="cls-2" d="M4.23,13.17a3.71,3.71,0,0,0-1.85,3.19,5.76,5.76,0,0,0,.49,2.28c0,.08.17,0,.13,0a4.48,4.48,0,0,1,.06-4.11,3.4,3.4,0,0,1,1.24-1.2c.08,0,0-.16-.07-.12Z" transform="translate(0)"/><path class="cls-2" d="M2.17,13.71a5.3,5.3,0,0,0-.39.54,1.52,1.52,0,0,0-.34.78.07.07,0,0,0,.14,0,1.56,1.56,0,0,1,.35-.76c.11-.16.22-.31.34-.46s0-.17-.1-.1Z" transform="translate(0)"/><path class="cls-2" d="M17.76,16a1.87,1.87,0,0,1,.16.9,3.8,3.8,0,0,1-1.16,2.39c-.06.07,0,.17.1.1A4,4,0,0,0,18.06,17a2,2,0,0,0-.18-1,.07.07,0,1,0-.12.07Z" transform="translate(0)"/><path class="cls-2" d="M18.58,15.64a2.69,2.69,0,0,1,.52,1,2.77,2.77,0,0,1-.53,2.46c-.06.07.06.14.12.07a2.84,2.84,0,0,0,0-3.62c-.06-.07-.16,0-.1.1Z" transform="translate(0)"/><path class="cls-2" d="M20,16.38a3.12,3.12,0,0,1,.64,1.1,3.2,3.2,0,0,1-.34,2.77c0,.07.07.14.12.07a3.31,3.31,0,0,0,.37-2.82,3.22,3.22,0,0,0-.69-1.22c-.06-.06-.16,0-.1.1Z" transform="translate(0)"/><path class="cls-2" d="M20.79,17.59a2.36,2.36,0,0,1,.34,1.83c0,.09.12.12.14,0a2.51,2.51,0,0,0-.36-1.94c-.05-.07-.17,0-.12.07Z" transform="translate(0)"/><path class="cls-2" d="M20.31,13.74a3.1,3.1,0,0,1,1.16,1.14A4.85,4.85,0,0,1,21.62,19c0,.08.1.12.13,0a5.37,5.37,0,0,0,.16-3.56,3.62,3.62,0,0,0-1.18-1.63,2.64,2.64,0,0,0-.35-.23c-.08,0-.15.08-.07.12Z" transform="translate(0)"/><path class="cls-2" d="M22.17,14.25a2.1,2.1,0,0,1,.72,1.08c0,.09.15.05.13,0a2.19,2.19,0,0,0-.75-1.14c-.07-.05-.17,0-.1.1Z" transform="translate(0)"/><path class="cls-2" d="M23.19,9.43,24,9.32c.09,0,.09-.15,0-.14l-.85.11c-.09,0-.09.15,0,.14Z" transform="translate(0)"/><path class="cls-2" d="M22.64,8.66A1.46,1.46,0,0,1,24,8.21c.09,0,.13-.12,0-.14a1.63,1.63,0,0,0-1.52.49c-.06.07,0,.17.1.1Z" transform="translate(0)"/><path class="cls-2" d="M21.49,7.64a2.23,2.23,0,0,1,1.33-1c.09,0,.05-.15,0-.14a2.37,2.37,0,0,0-1.41,1.12.07.07,0,1,0,.12.07Z" transform="translate(0)"/><path class="cls-2" d="M20.1,6.1a1.19,1.19,0,0,1,1.47,0A.07.07,0,1,0,21.64,6,1.32,1.32,0,0,0,20,6a.07.07,0,1,0,.1.1Z" transform="translate(0)"/><path class="cls-2" d="M20.17,5.05a2.78,2.78,0,0,1,3.25-.62c.08,0,.15-.08.07-.12A2.91,2.91,0,0,0,20.07,5c-.06.07,0,.17.1.1Z" transform="translate(0)"/><path class="cls-2" d="M19.2,5.12l1.35-1.55c.06-.07,0-.17-.1-.1L19.1,5c-.06.07,0,.16.1.1Z" transform="translate(0)"/><path class="cls-2" d="M1.33,9l-.87-.2c-.09,0-.12.12,0,.14l.87.19c.09,0,.12-.11,0-.13Z" transform="translate(0)"/><path class="cls-2" d="M2,8.18A1.59,1.59,0,0,0,.42,7.7c-.08,0,0,.16,0,.13a1.47,1.47,0,0,1,1.42.45c.07.06.17,0,.1-.1Z" transform="translate(0)"/><path class="cls-2" d="M3.08,7.19a2.06,2.06,0,0,0-1.4-1.12c-.09,0-.12.11,0,.13a1.89,1.89,0,0,1,1.3,1c0,.08.17,0,.14,0Z" transform="translate(0)"/><path class="cls-2" d="M4.48,5.64c-.41-.54-1.17-.32-1.64,0a.07.07,0,1,0,.07.12c.41-.25,1.11-.47,1.45,0,0,.07.17,0,.12-.07Z" transform="translate(0)"/><path class="cls-2" d="M4.43,4.52A3,3,0,0,0,1,3.9c-.08,0,0,.16.07.12a2.81,2.81,0,0,1,3.25.59c.06.07.16,0,.1-.09Z" transform="translate(0)"/><path class="cls-2" d="M5.34,4.6,4.05,3C4,3,3.89,3.07,4,3.13L5.24,4.7c.06.07.16,0,.1-.1Z" transform="translate(0)"/><path class="cls-2" d="M6.58,4.07A7.34,7.34,0,0,0,6,3.38a2.09,2.09,0,0,0-.92-.72c-.09,0-.13.12,0,.14A2.15,2.15,0,0,1,6,3.53c.17.2.34.4.49.61s.17,0,.12-.07Z" transform="translate(0)"/><path class="cls-2" d="M13.88,3.71a2.33,2.33,0,0,1-.08,1.43c0,.09.1.12.13,0A2.51,2.51,0,0,0,14,3.67a.07.07,0,0,0-.14,0Z" transform="translate(0)"/><text/><path class="cls-2" d="M12.73,3.37a1.15,1.15,0,0,1,.12.94c0,.09.11.13.13,0a1.28,1.28,0,0,0-.15-1.08c-.07-.07-.16,0-.1.1Z" transform="translate(0)"/><path class="cls-2" d="M12,3.89c.49.18.62.88.64,1.31,0,.09.15.09.14,0,0-.51-.19-1.24-.74-1.44-.08,0-.12.1,0,.13Z" transform="translate(0)"/><path class="cls-2" d="M3.59,12.34a2.29,2.29,0,0,1,.19-1.1,1.79,1.79,0,0,1,2.15-.8A.07.07,0,0,0,6,10.33a2.44,2.44,0,0,1-.36-1.21c0-1.12,1-1.74,1.92-2,.09,0,0-.16,0-.13-1,.32-2,.94-2,2.06a2.46,2.46,0,0,0,.38,1.4L6,10.3a2,2,0,0,0-2.26.77,2.4,2.4,0,0,0-.26,1.27c0,.09.15.09.14,0Z" transform="translate(0)"/><path class="cls-2" d="M21.07,12.71a2.65,2.65,0,0,0-.35-1.29,1.9,1.9,0,0,0-2.2-.76l.08.11A2.18,2.18,0,0,0,19,9.64a2.21,2.21,0,0,0-1.24-2,.07.07,0,1,0-.07.12,2,2,0,0,1,1.16,2,2,2,0,0,1-.35,1c0,.05,0,.11.08.1a1.74,1.74,0,0,1,2.1.8,2.52,2.52,0,0,1,.27,1.11.07.07,0,0,0,.14,0Z" transform="translate(0)"/><path class="cls-2" d="M12,10.66a1.4,1.4,0,0,1,1.24.17.07.07,0,1,0,.07-.12,1.52,1.52,0,0,0-1.34-.19c-.09,0,0,.17,0,.14Z" transform="translate(0)"/><path class="cls-2" d="M7.79,2.79a1.84,1.84,0,0,1,1.69-.1c.07,0,.15,0,.09-.11a1.57,1.57,0,0,0-1.64-.31c-.08,0,0,.16,0,.13a1.43,1.43,0,0,1,1.5.28l.08-.11a2,2,0,0,0-1.83.1c-.07.05,0,.17.07.12Z" transform="translate(0)"/><path class="cls-2" d="M18.58,2.57a2.22,2.22,0,0,0-1.77,0l.06.12c.38-.3,1-.6,1.47-.3a.07.07,0,1,0,.07-.12,1.47,1.47,0,0,0-1.63.32c-.06,0,0,.14.06.11a2.15,2.15,0,0,1,1.67,0c.09,0,.16-.09.07-.12Z" transform="translate(0)"/><path class="cls-2" d="M16.66,2.6a2.88,2.88,0,0,1,1.43-1.3l.26-.11s.21-.08.14-.1,0,.06,0,.07a1.84,1.84,0,0,1,.22.47,2.19,2.19,0,0,1,.15,1.55c0,.08.11.12.14,0A2.82,2.82,0,0,0,18.61,1a.08.08,0,0,0-.08,0,3.28,3.28,0,0,0-2,1.55c0,.08.09.15.13.07Z" transform="translate(0)"/><path class="cls-2" d="M19.75,2.75a8.18,8.18,0,0,0-.41-1.24,2.66,2.66,0,0,0-1-1.42c-.56-.29-1.2.19-1.6.54a7.09,7.09,0,0,0-.76.79,2.33,2.33,0,0,0-.39.5s.07,0,.05,0-.11,0-.14,0A3.93,3.93,0,0,0,15,1.8a1.62,1.62,0,0,0-1.19.33c-.07.06,0,.16.09.1A1.86,1.86,0,0,1,15.61,2a.08.08,0,0,0,.08,0A4.82,4.82,0,0,1,17.58.23c1-.41,1.51,1,1.77,1.7a8.52,8.52,0,0,1,.26.86c0,.09.16,0,.14,0Z" transform="translate(0)"/><path class="cls-2" d="M15,.68a2.34,2.34,0,0,0-1.6,1.52c0,.08.1.12.13,0A2.19,2.19,0,0,1,15,.82c.09,0,.05-.15,0-.14Z" transform="translate(0)"/><path class="cls-2" d="M13.18,1a1.5,1.5,0,0,0-.66,1.27.07.07,0,0,0,.14,0,1.37,1.37,0,0,1,.59-1.15c.07-.05,0-.17-.07-.12Z" transform="translate(0)"/><path class="cls-2" d="M11.25.86a1.9,1.9,0,0,1,1.29.67c.05.07.15,0,.1-.1A2,2,0,0,0,11.25.72c-.09,0-.09.13,0,.14Z" transform="translate(0)"/><path class="cls-2" d="M11.78,1.82a3.65,3.65,0,0,0-.81,0c-.05,0-.38.06-.27.11s-.08-.1-.11-.13A9,9,0,0,0,9.31.48C9,.22,8.53-.17,8.12.1a3.48,3.48,0,0,0-1,1.39c-.21.43-.41.88-.58,1.33,0,.09.11.12.14,0a10.35,10.35,0,0,1,1-2.12C8,.4,8.23,0,8.67.21a4,4,0,0,1,1.19,1c.26.28.51.56.74.85a.08.08,0,0,0,.09,0A2,2,0,0,1,11.78,2c.09,0,.09-.13,0-.14Z" transform="translate(0)"/><path class="cls-2" d="M9.8,2.53a3.29,3.29,0,0,0-.54-.69,3,3,0,0,0-.6-.47c-.15-.09-.52-.3-.71-.24s-.12.1-.17.16a4.45,4.45,0,0,0-.33.51,1.69,1.69,0,0,0-.18,1.42c0,.08.17,0,.14,0A1.59,1.59,0,0,1,7.6,1.81a3.28,3.28,0,0,1,.31-.45c.09-.12.06-.11.21-.06A2.81,2.81,0,0,1,9.68,2.6a.07.07,0,1,0,.12-.07Z" transform="translate(0)"/><path class="cls-2" d="M6.42,2.9c.24.11.48.23.71.36a1.39,1.39,0,0,1,.39.28,1.8,1.8,0,0,1,.26.54.07.07,0,1,0,.13,0,1.35,1.35,0,0,0-.55-.8,6.55,6.55,0,0,0-.87-.46c-.08,0-.15.09-.07.12Z" transform="translate(0)"/><path class="cls-2" d="M19.91,2.71A2,2,0,0,0,18.42,4c0,.08.12.12.14,0a1.86,1.86,0,0,1,1.38-1.18c.09,0,0-.16,0-.13Z" transform="translate(0)"/><path class="cls-2" d="M11.2,15.79c.23.68,1,.53,1.46.22.07,0,0-.17-.07-.12-.39.25-1.05.45-1.25-.14,0-.08-.17,0-.14,0Z" transform="translate(0)"/><path class="cls-2" d="M22.72,10.54c-.3,0,.32.83.35.86a6.43,6.43,0,0,1,.79,1.11,2.65,2.65,0,0,1-.13,2c0,.08.08.15.12.07a2.58,2.58,0,0,0,0-2.43c-.31-.44-.68-.83-1-1.3a1.22,1.22,0,0,0-.1-.23s0,0-.06,0c.09,0,.09-.15,0-.14Z" transform="translate(0)"/><path class="cls-2" d="M22.18,9.41a5,5,0,0,0,1.38.77,1.66,1.66,0,0,1,.79,1.07.07.07,0,0,0,.13,0,1.81,1.81,0,0,0-.62-1,7.41,7.41,0,0,0-1-.5,2.73,2.73,0,0,1-.56-.4c-.07-.06-.17,0-.1.1Z" transform="translate(0)"/><path class="cls-2" d="M2.18,8.92c-.17.13-.36.26-.54.38s-.55.24-.81.39A1.79,1.79,0,0,0,0,10.85c0,.09.13.09.14,0a1.5,1.5,0,0,1,.36-.68,1.57,1.57,0,0,1,.69-.48A4.74,4.74,0,0,0,2.28,9c.07,0,0-.15-.1-.09Z" transform="translate(0)"/><path class="cls-2" d="M1.68,10.14a4.26,4.26,0,0,1-.35.71,6.32,6.32,0,0,1-.49.74,4.27,4.27,0,0,0-.49.71,2,2,0,0,0,.32,1.85c0,.07.17,0,.12-.07A1.71,1.71,0,0,1,.73,12a6.84,6.84,0,0,0,1.08-1.79c0-.09-.1-.12-.13,0Z" transform="translate(0)"/><path class="cls-2" d="M9,12.29a1,1,0,0,1-.31.63c-.07.06,0,.15.1.1a1.08,1.08,0,0,0,.35-.73c0-.09-.13-.09-.14,0Z" transform="translate(0)"/><path class="cls-2" d="M12.26,13.29a2.45,2.45,0,0,0,1.35.74,2,2,0,0,0,1.21-.15c.23-.1.43-.29.66-.38a1.3,1.3,0,0,1,.89,0c.09,0,.12-.11,0-.14a1.44,1.44,0,0,0-1.06,0c-.12.06-.24.17-.36.24a1.82,1.82,0,0,1-.45.2,2,2,0,0,1-.72.08,2.28,2.28,0,0,1-1.46-.73c-.06-.07-.16,0-.1.1Z" transform="translate(0)"/><path class="cls-2" d="M10.73,13.47a2.86,2.86,0,0,0,.86,1c.7.49,1.38.11,1.85-.49.06-.07,0-.17-.09-.1a1.52,1.52,0,0,1-1,.69,1.15,1.15,0,0,1-.81-.33,3.16,3.16,0,0,1-.67-.87c0-.08-.16,0-.12.07Z" transform="translate(0)"/><ellipse class="cls-2" cx="10.92" cy="11.89" rx="0.08" ry="0.09"/><path class="cls-2" d="M10.92,12a.11.11,0,0,1-.1-.12.11.11,0,0,1,.1-.11.11.11,0,0,1,.11.11A.11.11,0,0,1,10.92,12Zm0-.18a.06.06,0,0,0-.05.06.06.06,0,0,0,.05.06s.05,0,.05-.06A.06.06,0,0,0,10.92,11.83Z" transform="translate(0)"/><ellipse class="cls-2" cx="10.29" cy="12.52" rx="0.08" ry="0.09" transform="translate(-3.6 4.18) rotate(-19.59)"/><path class="cls-2" d="M10.3,12.64a.12.12,0,0,1-.11-.08.12.12,0,0,1,.06-.15.12.12,0,0,1,.14.08h0a.11.11,0,0,1-.06.14Zm0-.18h0a.08.08,0,0,0,0,.08s0,.05.07,0a.05.05,0,0,0,0-.07h0l0,0Z" transform="translate(0)"/><ellipse class="cls-2" cx="11.13" cy="12.61" rx="0.08" ry="0.09" transform="translate(-2.67 3) rotate(-13.72)"/><path class="cls-2" d="M11.14,12.72a.12.12,0,0,1-.1-.17.08.08,0,0,1,.07-.05.08.08,0,0,1,.08,0,.1.1,0,0,1,0,.07h0a.1.1,0,0,1-.07.14Zm0-.17h0l0,0a0,0,0,0,0,0,0,.06.06,0,0,0,.06.05.06.06,0,0,0,0-.07s0,0,0,0Z" transform="translate(0)"/><ellipse class="cls-2" cx="14.02" cy="12.52" rx="0.08" ry="0.09"/><path class="cls-2" d="M14,12.64c-.06,0-.1-.05-.1-.12a.1.1,0,0,1,.1-.11.11.11,0,0,1,.11.11A.11.11,0,0,1,14,12.64Zm0-.18a.06.06,0,0,0,0,.06s0,.06,0,.06.05,0,.05-.06A.06.06,0,0,0,14,12.46Z" transform="translate(0)"/><ellipse class="cls-2" cx="13.39" cy="13.15" rx="0.08" ry="0.09" transform="translate(-3.63 5.25) rotate(-19.59)"/><path class="cls-2" d="M13.4,13.27l-.06,0a.15.15,0,0,1-.05-.06.12.12,0,0,1,.06-.15.08.08,0,0,1,.08,0,.11.11,0,0,1,.06.07h0a.11.11,0,0,1-.06.14Zm0-.18h0a.06.06,0,0,0,0,.08l0,0h0a.06.06,0,0,0,0-.08h0s0,0,0,0Z" transform="translate(0)"/><ellipse class="cls-2" cx="14.23" cy="13.24" rx="0.08" ry="0.09" transform="translate(-2.73 3.75) rotate(-13.72)"/><path class="cls-2" d="M14.24,13.35s-.05,0-.06,0,0,0,0-.07a.14.14,0,0,1,0-.09s0,0,.06,0a.1.1,0,0,1,.13.08h0a.11.11,0,0,1-.07.14Zm0-.17h0s0,0,0,0a.07.07,0,0,0,0,.05l0,0h0a.06.06,0,0,0,0-.07S14.25,13.18,14.23,13.18Z" transform="translate(0)"/><path class="cls-2" d="M9.05,12.7a4,4,0,0,0,2.73.8,1.29,1.29,0,0,0,.53-.18c.13-.1.1-.32.12-.47a.08.08,0,0,0,0-.09,1.44,1.44,0,0,1-.56-.56,2.19,2.19,0,0,1-.31-.48.55.55,0,0,1,.1-.45.69.69,0,0,1,.92,0,.07.07,0,0,0,.09,0,.77.77,0,0,1,1.09.14.73.73,0,0,1-.1.67,1.47,1.47,0,0,1-1.2.64c-.09,0-.09.15,0,.14a1.59,1.59,0,0,0,1.3-.67.79.79,0,0,0,0-1,.94.94,0,0,0-1-.12.33.33,0,0,0-.13.07c0,.06,0,0,0,0a.76.76,0,0,0-.26-.15c-.46-.19-1.16.11-1,.7a1.82,1.82,0,0,0,.33.53,1.68,1.68,0,0,0,.64.63l0-.09a2,2,0,0,0-.05.35c0,.07.05,0,0,0a1.66,1.66,0,0,1-.49.16,3.7,3.7,0,0,1-2.61-.79c-.08-.05-.15.08-.08.13Z" transform="translate(0)"/><path class="cls-2" d="M14.15,10.86s1.2-2.48,2.54-.39c0,0,.39.21,0,.39a5.56,5.56,0,0,1-.77.75S15.4,11.86,14.15,10.86Z" transform="translate(0)"/><path class="cls-2" d="M15.72,11.67a2.87,2.87,0,0,1-1.59-.79v0s.58-1.18,1.38-1.23q.63,0,1.2.84s.18.11.17.22-.07.15-.21.21a5.56,5.56,0,0,1-.77.76A.57.57,0,0,1,15.72,11.67Zm-1.53-.82c1.2,1,1.68.74,1.68.74a5.39,5.39,0,0,0,.76-.75h0c.12-.05.19-.1.19-.16s-.11-.15-.15-.17h0c-.37-.57-.76-.85-1.16-.83C14.8,9.71,14.27,10.7,14.19,10.85Z" transform="translate(0)"/><path class="cls-2" d="M13.85,10.94a4.78,4.78,0,0,1,2,1c.07.08.19,0,.11-.12a4.78,4.78,0,0,0-2.11-1.05c-.1,0-.14.13,0,.16Z" transform="translate(0)"/><circle class="cls-3" cx="15.65" cy="10.64" r="0.26"/><path class="cls-3" d="M15.65,10.93a.29.29,0,1,1,.29-.29A.29.29,0,0,1,15.65,10.93Zm0-.52a.23.23,0,0,0-.23.23.23.23,0,0,0,.23.24.24.24,0,0,0,.24-.24A.23.23,0,0,0,15.65,10.41Z" transform="translate(0)"/><ellipse class="cls-3" cx="15.21" cy="10.57" rx="0.12" ry="0.11"/><path class="cls-3" d="M15.21,10.71a.14.14,0,0,1-.15-.14.14.14,0,0,1,.15-.13.14.14,0,1,1,0,.27Zm0-.22a.09.09,0,0,0-.1.08s0,.08.1.08a.08.08,0,0,0,.09-.08A.09.09,0,0,0,15.21,10.49Z" transform="translate(0)"/><path class="cls-2" d="M8.31,10.21s-.39.2,0,.38a6.16,6.16,0,0,0,.77.76s.48.24,1.73-.76" transform="translate(0)"/><path class="cls-2" d="M9.29,11.4a.33.33,0,0,1-.18,0,5.68,5.68,0,0,1-.78-.76c-.13-.06-.21-.13-.21-.2s.17-.22.18-.23l0,.05c-.05,0-.16.1-.15.17s.06.12.18.17h0a6,6,0,0,0,.76.75s.49.22,1.71-.75l0,0A2.75,2.75,0,0,1,9.29,11.4Z" transform="translate(0)"/><path class="cls-2" d="M10.85,10.59s-1.19-2.48-2.54-.38" transform="translate(0)"/><path class="cls-2" d="M10.83,10.6s-.57-1.16-1.34-1.2c-.4,0-.79.25-1.15.82l-.05,0c.38-.59.79-.88,1.21-.85.8.05,1.36,1.19,1.38,1.24Z" transform="translate(0)"/><path class="cls-2" d="M11.11,10.51A4.9,4.9,0,0,0,9,11.57c-.08.07,0,.19.12.12a4.56,4.56,0,0,1,2-1,.09.09,0,0,0-.05-.17Z" transform="translate(0)"/><circle class="cls-3" cx="9.35" cy="10.38" r="0.26"/><path class="cls-3" d="M9.35,10.67a.29.29,0,1,1,.29-.29A.29.29,0,0,1,9.35,10.67Zm0-.53a.23.23,0,0,0-.23.24.23.23,0,0,0,.23.23.23.23,0,0,0,.24-.23A.24.24,0,0,0,9.35,10.14Z" transform="translate(0)"/><ellipse class="cls-3" cx="9.8" cy="10.31" rx="0.12" ry="0.11"/><path class="cls-3" d="M9.8,10.44a.14.14,0,1,1,.15-.13A.14.14,0,0,1,9.8,10.44Zm0-.21a.08.08,0,0,0-.09.08.09.09,0,0,0,.18,0A.08.08,0,0,0,9.8,10.23Z" transform="translate(0)"/><ellipse class="cls-3" cx="13.27" cy="11.52" rx="0.05" ry="0.16" transform="translate(-2.45 19.38) rotate(-67.53)"/></g></g></svg>