<svg id="Capa_1" data-name="Capa 1" xmlns="http://www.w3.org/2000/svg" viewBox="0 0 62.18 20.93"><defs><style>.cls-1{fill:#fff;}</style></defs><g id="Capa_2" data-name="Capa 2"><g id="Capa_5" data-name="Capa 5"><path class="cls-1" d="M30.76,5.78c0-.37-.17-.55-.52-.55h-.17a.14.14,0,0,1-.15,0q-.06-.09.21-.12h.19a.63.63,0,0,1,.63.4,1.05,1.05,0,0,1,.07.43,1.36,1.36,0,0,1-.22.65,2.37,2.37,0,0,1-1.23,1.06,1.4,1.4,0,0,1-1.2,0,1.54,1.54,0,0,1-.82-.93A2.19,2.19,0,0,1,27.46,6a2.9,2.9,0,0,1,.22-1,4.62,4.62,0,0,1,1.63-2,4,4,0,0,1,2.27-.88,1.17,1.17,0,0,1,1.19.72,1.76,1.76,0,0,1,.14.75v.3a6.76,6.76,0,0,1-.41,1.59.66.66,0,0,0-.06.2h0s.07,0,.13-.16a13.14,13.14,0,0,1,1.3-1.94,2.22,2.22,0,0,1,.56-.45A1.37,1.37,0,0,1,35.09,3a.54.54,0,0,1,.44.2.86.86,0,0,1,.17.56,9.94,9.94,0,0,1-.63,2.69c-.09.25-.14.41-.16.48a27.08,27.08,0,0,1,1.62-2.24,4.14,4.14,0,0,1,1.74-1.44h.24a.37.37,0,0,1,.39.31,1,1,0,0,1,0,.24,2.4,2.4,0,0,1-.32,1,15.43,15.43,0,0,0-.89,2.09,5.6,5.6,0,0,0-.33,1.4,2.56,2.56,0,0,0,.07.62.69.69,0,0,0,.76.49h.25s0,0-.06.07h-.24a1.19,1.19,0,0,1-1.26-1.13V8.18a3.09,3.09,0,0,1,.17-1c.11-.35.21-.63.29-.82s.4-.92.81-1.82a2.06,2.06,0,0,0,.21-.76c0-.18-.07-.27-.22-.27a2.38,2.38,0,0,0-1,.64c-.22.23-.47.5-.73.82a19.49,19.49,0,0,0-1.15,1.7,12.62,12.62,0,0,0-1,1.7c-.12.29-.28.43-.49.43s-.23-.05-.25-.15a.09.09,0,0,1,0-.1l.15-.27L34,7.91c.09-.17.2-.41.33-.7s.24-.59.34-.89A10.84,10.84,0,0,0,35.2,4a1.93,1.93,0,0,0,0-.34.42.42,0,0,0-.11-.32.31.31,0,0,0-.23-.12c-.26,0-.55.19-.86.59a12.89,12.89,0,0,0-1.11,1.55c-.31.51-.55.94-.72,1.28s-.37.77-.59,1.25-.33.75-.35.78a.61.61,0,0,1-.05.12.35.35,0,0,0-.06.14.46.46,0,0,1-.45.23c-.13,0-.21,0-.22-.13h0a15.07,15.07,0,0,0,1.17-2.47,9.75,9.75,0,0,0,.81-3c0-.77-.31-1.15-.94-1.15A3.07,3.07,0,0,0,30,2.9a5.06,5.06,0,0,0-1.53,1.49,3.09,3.09,0,0,0-.36.7,3.43,3.43,0,0,0-.21,1,1.36,1.36,0,0,0,.69,1.36,1,1,0,0,0,.49.12,1.63,1.63,0,0,0,1.41-.94A1.61,1.61,0,0,0,30.76,5.78Z" transform="translate(-0.14 0.04)"/><path class="cls-1" d="M38.7,8.47a.49.49,0,0,0,.3-.16,4.83,4.83,0,0,0,.75-1.2c0-.08.08-.11.12-.07h0a.49.49,0,0,1-.06.17c-.05.1-.08.18-.12.25a2.64,2.64,0,0,1-.2.37,2.7,2.7,0,0,1-.27.39.86.86,0,0,1-.62.37.49.49,0,0,1-.41-.17.64.64,0,0,1-.13-.4,1.28,1.28,0,0,1,.1-.47l.51-1.3a.29.29,0,0,0,0-.13.41.41,0,0,0-.1-.21H39c.12,0,.2,0,.22.06s0,.12,0,.22l-.64,1.49a1.28,1.28,0,0,0-.13.5.22.22,0,0,0,.06.29A.24.24,0,0,0,38.7,8.47Zm.79-2.94a.39.39,0,0,1-.25.1.27.27,0,0,1-.22-.1.3.3,0,0,1,0-.23.36.36,0,0,1,.13-.23.39.39,0,0,1,.25-.1.32.32,0,0,1,.22.1.24.24,0,0,1,.06.23A.33.33,0,0,1,39.49,5.53Z" transform="translate(-0.14 0.04)"/><path class="cls-1" d="M42.67,5a3.51,3.51,0,0,0-.39,1.49q0,1.35.93,1.65a2,2,0,0,0,.55.07,2.25,2.25,0,0,0,.58-.07,3.37,3.37,0,0,0,1-.46,1.51,1.51,0,0,0,.57-.58c.21-.49.44-.74.69-.74s.2.07.25.21a.25.25,0,0,1,0,.17A4.85,4.85,0,0,1,46.51,8a14.37,14.37,0,0,1-.74,1.4,6.87,6.87,0,0,1,1.75.21c.11,0,.16.06.16.11s-.07.07-.23,0a6.54,6.54,0,0,0-1.59-.14h-.21a4.91,4.91,0,0,1-1.29,1.24,5.44,5.44,0,0,1-1.58.74,3.48,3.48,0,0,1-.72.11,1.41,1.41,0,0,1-.5-.07c-.39-.15-.58-.34-.58-.57a.43.43,0,0,1,.06-.22,2.08,2.08,0,0,1,1.13-.89,5.38,5.38,0,0,1,1.47-.42,12.47,12.47,0,0,1,1.73-.13,6.81,6.81,0,0,0,.8-2V7.22a4.52,4.52,0,0,1-.86.65,4.28,4.28,0,0,1-.84.39,3.09,3.09,0,0,1-.95.19,1.81,1.81,0,0,1-.65-.11,1.51,1.51,0,0,1-.83-.7,2.48,2.48,0,0,1-.35-1.33,4.19,4.19,0,0,1,.41-1.67,1.68,1.68,0,0,1-.53-1.15,1.69,1.69,0,0,1,.5-1.16c.06-.07.11-.1.14-.08s0,.07,0,.14a1.59,1.59,0,0,0-.36,1,1.56,1.56,0,0,0,.42,1l.17-.31a4.19,4.19,0,0,1,1.7-1.56,3.53,3.53,0,0,1,1.62-.43h.43A1.73,1.73,0,0,1,47.61,3a1.2,1.2,0,0,1,.14.59,1.48,1.48,0,0,1-.19.68A2.48,2.48,0,0,1,46,5.33a4.11,4.11,0,0,1-1.21.17A3.67,3.67,0,0,1,42.67,5Zm-1.24,6.1c0,.15.12.25.38.3h.28a3.49,3.49,0,0,0,1.44-.4,4.21,4.21,0,0,0,1.75-1.43,12.16,12.16,0,0,0-1.47.13,4.4,4.4,0,0,0-1.74.66c-.43.25-.64.49-.64.69ZM46,2.35a2.77,2.77,0,0,0-1.45.47A4.45,4.45,0,0,0,42.8,4.74a2.18,2.18,0,0,0,.87.41,3.42,3.42,0,0,0,.78.12A3.38,3.38,0,0,0,47,4.37a1.37,1.37,0,0,0,.43-.93,1,1,0,0,0-.82-1A2.1,2.1,0,0,0,46,2.35Z" transform="translate(-0.14 0.04)"/><path class="cls-1" d="M48.51,5.44a.88.88,0,0,1-.45.68h1.1a.29.29,0,0,1,0,.13,1.12,1.12,0,0,1-.1.31c-.06.14-.12.25-.17.35l-.14.28-.16.32-.14.36c-.13.4-.11.6.07.6s.55-.44,1-1.33c0-.07.07-.1.09-.08s0,0,0,.06a1.89,1.89,0,0,1-.11.25l-.22.43a3.31,3.31,0,0,1-.38.52.79.79,0,0,1-.58.37c-.21,0-.35-.13-.43-.38a.74.74,0,0,1,0-.21,1.32,1.32,0,0,1,.1-.39,3.92,3.92,0,0,1,.29-.58c.08-.13.15-.26.22-.4a.24.24,0,0,0,0-.12c0-.16-.22-.25-.64-.26l-.1.25a5.1,5.1,0,0,1-1,1.77c0,.05-.08,0-.08,0h0a5.79,5.79,0,0,0,.77-1.4A7.28,7.28,0,0,0,48,5.29a.22.22,0,0,1,.22-.24.26.26,0,0,1,.26.22A.47.47,0,0,1,48.51,5.44Z" transform="translate(-0.14 0.04)"/><path class="cls-1" d="M51.53,7.13a3.37,3.37,0,0,0-.31.76,1.34,1.34,0,0,0,0,.4c0,.11,0,.16.12.16s.22-.09.37-.28a5.48,5.48,0,0,0,.65-1.06c0-.05,0-.08.07-.08h.06a.14.14,0,0,1,0,.09c-.49,1-.9,1.49-1.24,1.49a.41.41,0,0,1-.37-.23.61.61,0,0,1-.08-.32,2,2,0,0,1,.08-.48c-.42.68-.79,1-1.1,1a.4.4,0,0,1-.23-.08.65.65,0,0,1-.31-.5,2.5,2.5,0,0,1,.68-1.59,1.75,1.75,0,0,1,.94-.58h.29a.81.81,0,0,1,.62.25.14.14,0,0,1,0,.17.12.12,0,0,1-.13.07A.37.37,0,0,0,51.3,6q-.34,0-.84.54a4,4,0,0,0-.54.75,1.79,1.79,0,0,0-.31.83c0,.21.06.32.2.32.32,0,.74-.49,1.25-1.47a1.59,1.59,0,0,1,.26-.41.36.36,0,0,1,.26-.11h.36A3.62,3.62,0,0,0,51.53,7.13Z" transform="translate(-0.14 0.04)"/><path class="cls-1" d="M54.72,6a6.6,6.6,0,0,0-1,2.25q0,.21.15.21c.27,0,.64-.46,1.1-1.38C55,7,55,7,55.06,7s0,0,0,.07a.14.14,0,0,1,0,.09,5.48,5.48,0,0,1-.72,1.18.8.8,0,0,1-.58.32.48.48,0,0,1-.44-.22.4.4,0,0,1-.08-.28,1.32,1.32,0,0,1,.08-.44,3.89,3.89,0,0,1,.44-.83.63.63,0,0,0,.08-.23s0-.08-.13-.08-.27.12-.52.36a5.31,5.31,0,0,0-1.11,1.58.18.18,0,0,1-.11.1h-.24a.45.45,0,0,0-.23,0c.09-.17.25-.52.51-1A9.51,9.51,0,0,1,52.93,6a.39.39,0,0,1,.26,0h.36a4.59,4.59,0,0,0-1,1.5,8,8,0,0,1,.68-.74A5,5,0,0,1,54,6.24,1.62,1.62,0,0,1,54.63,6Z" transform="translate(-0.14 0.04)"/><path class="cls-1" d="M55.36,6.3a.29.29,0,0,0,0-.13.41.41,0,0,0-.1-.21h.44c.12,0,.19,0,.22.06s0,.12,0,.22l-.64,1.49c-.13.31-.3.67-.5,1.06l.46-.19a1.92,1.92,0,0,0,.35-.23A1.89,1.89,0,0,0,55.91,8c.1-.14.26-.44.5-.88a.08.08,0,0,1,.1-.09.09.09,0,0,1,0,.07,1.94,1.94,0,0,1-.13.3c-.09.18-.18.35-.27.5a2.73,2.73,0,0,1-.35.47,1.79,1.79,0,0,1-.48.39c-.23.11-.46.21-.7.3a6,6,0,0,1-1.25,1.65,2.53,2.53,0,0,1-.57.34,1.76,1.76,0,0,1-.68.14.9.9,0,0,1-.55-.15.5.5,0,0,1-.19-.36,1.31,1.31,0,0,1,.12-.47,1.45,1.45,0,0,1,.75-.65,5.27,5.27,0,0,1,1.08-.36l.9-.2a4.49,4.49,0,0,0,.24-.42L55,7.35c-.09,0-.11,0-.07-.13Zm-3.71,4.07a.89.89,0,0,0-.08.32.24.24,0,0,0,.11.23A.41.41,0,0,0,52,11a1.53,1.53,0,0,0,1-.48,5.25,5.25,0,0,0,1-1.3c-.56.14-1.11.3-1.65.49A1.45,1.45,0,0,0,51.65,10.37Zm4.44-4.84a.39.39,0,0,1-.25.1.27.27,0,0,1-.21-.09.26.26,0,0,1-.07-.15V5.25a.34.34,0,0,1,.13-.18.37.37,0,0,1,.24-.1.31.31,0,0,1,.22.09.21.21,0,0,1,.07.15v.14A.34.34,0,0,1,56.09,5.53Z" transform="translate(-0.14 0.04)"/><path class="cls-1" d="M56.71,8.47A.56.56,0,0,0,57,8.31a4.83,4.83,0,0,0,.75-1.2c0-.08.08-.11.11-.07h0a.49.49,0,0,1-.06.17l-.12.25a2.64,2.64,0,0,1-.2.37,2.7,2.7,0,0,1-.27.39.86.86,0,0,1-.62.37.52.52,0,0,1-.42-.17.72.72,0,0,1-.12-.4,1.28,1.28,0,0,1,.1-.47l.51-1.3a.29.29,0,0,0,0-.13.41.41,0,0,0-.1-.21H57c.12,0,.2,0,.22.06a.8.8,0,0,1,0,.22L56.6,7.73a1.29,1.29,0,0,0-.14.5.22.22,0,0,0,.2.24Zm.78-2.94a.35.35,0,0,1-.24.1.26.26,0,0,1-.22-.1.31.31,0,0,1,0-.23.36.36,0,0,1,.13-.23.39.39,0,0,1,.25-.1.32.32,0,0,1,.22.1.24.24,0,0,1,.06.23A.33.33,0,0,1,57.49,5.53Z" transform="translate(-0.14 0.04)"/><path class="cls-1" d="M57.59,8a6.9,6.9,0,0,1,.64-2.22h-.47a.14.14,0,0,1,0-.09.06.06,0,0,1,.06,0h.48c.16-.36.34-.72.53-1.06A1.93,1.93,0,0,1,59.3,4a.71.71,0,0,1,.3-.15h.13a.37.37,0,0,1,.19.36,1.77,1.77,0,0,1-.19.67c-.12.26-.24.5-.36.73h.39a0,0,0,0,1,.05,0,.14.14,0,0,1,0,.09h-.52a5.89,5.89,0,0,1-1.08,1.4L58,7.91a.74.74,0,0,0,0,.21.46.46,0,0,0,0,.2.19.19,0,0,0,.18.11.63.63,0,0,0,.3-.1,3.41,3.41,0,0,0,.85-1.21A.08.08,0,0,1,59.45,7h.06a.21.21,0,0,1,0,.11,5.8,5.8,0,0,1-.41.78c-.29.47-.6.7-.92.7a.52.52,0,0,1-.41-.18A.67.67,0,0,1,57.59,8Zm1.5-2.22h-.37c-.07.15-.21.5-.43,1.06A6.41,6.41,0,0,0,59.09,5.78Zm.11-.17a3.51,3.51,0,0,0,.52-1.32V4.14a.88.88,0,0,0-.27.25,9.2,9.2,0,0,0-.6,1.22Z" transform="translate(-0.14 0.04)"/><path class="cls-1" d="M61.41,7.13a3.4,3.4,0,0,0-.32.76,2.73,2.73,0,0,0-.05.4c0,.11,0,.16.12.16s.23-.09.38-.28a5.44,5.44,0,0,0,.64-1.06c0-.05,0-.08.08-.08h.06v.09c-.49,1-.91,1.49-1.24,1.49a.44.44,0,0,1-.38-.23.6.6,0,0,1-.07-.32,2,2,0,0,1,.08-.48c-.43.68-.79,1-1.1,1a.4.4,0,0,1-.23-.08.65.65,0,0,1-.26-.5,2.5,2.5,0,0,1,.68-1.59,1.75,1.75,0,0,1,.94-.58H61a.81.81,0,0,1,.62.25.16.16,0,0,1,.05.17c0,.06-.07.08-.14.07A.36.36,0,0,0,61.18,6c-.23,0-.51.18-.85.54a4.41,4.41,0,0,0-.53.75,1.92,1.92,0,0,0-.32.83c0,.21.07.32.2.32q.48,0,1.26-1.47a1.55,1.55,0,0,1,.25-.41.39.39,0,0,1,.27-.11h.36A2.47,2.47,0,0,0,61.41,7.13Z" transform="translate(-0.14 0.04)"/><path class="cls-1" d="M42.17,13.87A1.43,1.43,0,0,1,43,15.09a1.8,1.8,0,0,1-.63,1.2,3.51,3.51,0,0,1-.85.64,3.61,3.61,0,0,1-1,.4,6.86,6.86,0,0,1-1.5.2h-.29A9.09,9.09,0,0,1,37.58,19a2.81,2.81,0,0,1-2,.85c-.69,0-1.11-.19-1.27-.57a.81.81,0,0,1-.06-.31.62.62,0,0,1,.18-.39,1,1,0,0,1,.81-.33,2.1,2.1,0,0,1,.7.12c.09,0,.13.07.1.1s-.09,0-.21,0a1.54,1.54,0,0,0-.43-.06.66.66,0,0,0-.46.19.57.57,0,0,0-.19.42.54.54,0,0,0,0,.18c.08.29.33.43.72.43a2.53,2.53,0,0,0,1.76-.83,8,8,0,0,0,1.38-2.16c.2-.39.45-.82.74-1.3a8.85,8.85,0,0,1,.89-1.22l.15-.15.28-.3a10.16,10.16,0,0,0-1.23-.08,7.33,7.33,0,0,0-1.24.11,8.6,8.6,0,0,0-1,.25,6.79,6.79,0,0,0-.87.39,2.26,2.26,0,0,0-.75.59,1.44,1.44,0,0,0-.4,1,.87.87,0,0,0,.22.57.72.72,0,0,0,.59.28,1.06,1.06,0,0,0,.71-.28,1.6,1.6,0,0,0,.48-.69v-.07h0a.11.11,0,0,1,0,.08,1,1,0,0,1-.4.82,1.4,1.4,0,0,1-.88.3,1.25,1.25,0,0,1-.88-.32,1.07,1.07,0,0,1-.35-.82,1.56,1.56,0,0,1,.25-.84,2.25,2.25,0,0,1,.59-.6,6,6,0,0,1,.79-.42,7.4,7.4,0,0,1,1.6-.42,9.12,9.12,0,0,1,1.56-.13,6.59,6.59,0,0,1,1.33.13,1.76,1.76,0,0,1,.51-.3,1.13,1.13,0,0,1,.24-.08h0v0a.7.7,0,0,1-.19.15l-.3.25A3.92,3.92,0,0,1,42.17,13.87ZM39,17.35a4.87,4.87,0,0,0,1.26-.2,3.91,3.91,0,0,0,1.21-.6,2.16,2.16,0,0,0,1-1.6c0-.62-.48-1-1.42-1.27-.3.42-.68,1.05-1.16,1.9s-.82,1.43-1,1.77Z" transform="translate(-0.14 0.04)"/><path class="cls-1" d="M43.62,18a3.4,3.4,0,0,0-.32.76,2.81,2.81,0,0,0,0,.41c0,.1,0,.16.12.16s.22-.1.37-.28a5.48,5.48,0,0,0,.6-1.05.27.27,0,0,1,.07-.08s.07,0,.07,0a.17.17,0,0,1,0,.1c-.49,1-.9,1.48-1.24,1.48a.45.45,0,0,1-.37-.22.6.6,0,0,1-.07-.32,1.62,1.62,0,0,1,.08-.49c-.43.69-.8,1-1.11,1a.38.38,0,0,1-.23-.08.66.66,0,0,1-.24-.57A2.48,2.48,0,0,1,42,17.28a1.81,1.81,0,0,1,1-.59,1.31,1.31,0,0,1,.28,0,.88.88,0,0,1,.63.26c0,.06.07.12,0,.17s-.06.07-.13.06a.38.38,0,0,0-.39-.29,1.38,1.38,0,0,0-.84.55,4,4,0,0,0-.54.75,1.79,1.79,0,0,0-.31.83c0,.21.07.31.2.31.32,0,.74-.49,1.25-1.47a2.11,2.11,0,0,1,.26-.4.36.36,0,0,1,.26-.11H44A3.39,3.39,0,0,0,43.62,18Z" transform="translate(-0.14 0.04)"/><path class="cls-1" d="M45.47,16.3A.85.85,0,0,1,45,17h.43c.23,0,.45,0,.68,0a.29.29,0,0,1,0,.13.85.85,0,0,1-.09.31c-.07.13-.12.25-.17.35l-.15.28-.15.32c-.06.13-.1.25-.14.35-.13.41-.11.61.06.61s.56-.45,1-1.33c0-.07.07-.1.1-.08a.06.06,0,0,1,0,.06,1.22,1.22,0,0,1-.1.24l-.23.44a2.73,2.73,0,0,1-.37.52.82.82,0,0,1-.58.37.46.46,0,0,1-.44-.38.81.81,0,0,1,0-.22,1.24,1.24,0,0,1,.09-.38,4.48,4.48,0,0,1,.29-.58c.14-.23.21-.37.23-.41v-.11c0-.17-.21-.26-.64-.27l-.09.26a5.1,5.1,0,0,1-1,1.77s-.08,0-.08-.05v-.06a6.56,6.56,0,0,0,.77-1.4A7.86,7.86,0,0,0,45,16.16a.22.22,0,0,1,.22-.25c.12,0,.2.08.26.23A.86.86,0,0,1,45.47,16.3Z" transform="translate(-0.14 0.04)"/><path class="cls-1" d="M48.49,18a3.4,3.4,0,0,0-.32.76,2.87,2.87,0,0,0-.05.41c0,.1,0,.16.12.16s.23-.1.38-.28A5.67,5.67,0,0,0,49.26,18s.05-.07.08-.08.06,0,.06,0v.1c-.49,1-.91,1.48-1.24,1.48a.43.43,0,0,1-.38-.22.71.71,0,0,1-.07-.32,2,2,0,0,1,.08-.49c-.43.69-.79,1-1.1,1a.32.32,0,0,1-.23-.08.66.66,0,0,1-.24-.57,2.5,2.5,0,0,1,.68-1.59,1.77,1.77,0,0,1,.94-.59,1.41,1.41,0,0,1,.29,0,.85.85,0,0,1,.62.26.16.16,0,0,1,0,.17c0,.05-.07.07-.14.06a.37.37,0,0,0-.38-.29c-.23,0-.51.19-.85.55a4.41,4.41,0,0,0-.53.75,1.92,1.92,0,0,0-.32.83c0,.21.07.31.2.31q.48,0,1.26-1.47a2.06,2.06,0,0,1,.25-.4.39.39,0,0,1,.27-.11h.36A3.49,3.49,0,0,0,48.49,18Z" transform="translate(-0.14 0.04)"/><path class="cls-1" d="M49.58,19.33a.5.5,0,0,0,.32-.15A5.61,5.61,0,0,0,50.65,18c0-.08.07-.1.11-.07a0,0,0,0,1,0,.05,1.34,1.34,0,0,1-.07.18l-.11.25-.2.36a2.7,2.7,0,0,1-.27.39.91.91,0,0,1-.62.38.46.46,0,0,1-.42-.18.61.61,0,0,1-.13-.39,1.29,1.29,0,0,1,.11-.47l.51-1.3a.29.29,0,0,0,0-.13.4.4,0,0,0-.09-.21h.44c.12,0,.19,0,.21.07a.26.26,0,0,1,0,.21l-.64,1.5a1.28,1.28,0,0,0-.13.5C49.33,19.25,49.41,19.33,49.58,19.33Zm.78-2.93a.39.39,0,0,1-.25.1.28.28,0,0,1-.21-.1.28.28,0,0,1-.07-.23.43.43,0,0,1,.14-.23.35.35,0,0,1,.25-.1.27.27,0,0,1,.22.1.32.32,0,0,1,.06.23A.43.43,0,0,1,50.36,16.4Z" transform="translate(-0.14 0.04)"/><path class="cls-1" d="M51.34,19.36h.15a.85.85,0,0,0,.63-.37,10.93,10.93,0,0,0,.6-1,0,0,0,0,1,.05,0s.07,0,.07.06v.09a1,1,0,0,0-.07.15c0,.05-.06.12-.1.22a1.17,1.17,0,0,1-.13.23l-.13.22a1.56,1.56,0,0,1-.16.2l-.17.17a.7.7,0,0,1-.32.19.93.93,0,0,1-.57,0,.76.76,0,0,1-.33.08.62.62,0,0,1-.69-.45,1,1,0,0,1,0-.25.48.48,0,0,1,.1-.28.36.36,0,0,1,.21-.15c.27-.51.5-1,.7-1.4s.46-.67.74-.67a.42.42,0,0,1,.22,0,.08.08,0,0,1,.08.11s-.06,0-.12,0a.38.38,0,0,0-.15,0h-.11a.55.55,0,0,0-.27.55,1.15,1.15,0,0,0,.06.37,1.77,1.77,0,0,0,.15.31,1.76,1.76,0,0,1,.18.68,1,1,0,0,1-.17.52A1.51,1.51,0,0,1,51.34,19.36Zm-.87-.28v.11a.28.28,0,0,0,.3.21.38.38,0,0,0,.15,0,.69.69,0,0,1-.31-.6A.42.42,0,0,0,50.47,19.08Zm.6.22a1,1,0,0,0,.35-.88,3.77,3.77,0,0,0-.05-.68,5.7,5.7,0,0,1-.06-.58.74.74,0,0,1,0-.21l-.75,1.48c.11,0,.17.08.17.24A.63.63,0,0,0,51.07,19.3Z" transform="translate(-0.14 0.04)"/><path class="cls-1" d="M54.15,16.71c.39,0,.59.25.59.74a1.73,1.73,0,0,1-.18.71,2.74,2.74,0,0,1-.67.95.42.42,0,0,0,.38.2.53.53,0,0,0,.4-.22,2.44,2.44,0,0,0,.35-.43l.15-.28.12-.25a1.24,1.24,0,0,1,.1-.2h0s.08,0,.08.06a.06.06,0,0,1,0,.06v.11a1.11,1.11,0,0,0-.07.16l-.09.17a1.14,1.14,0,0,1-.1.19l-.12.2a1.33,1.33,0,0,1-.14.19l-.15.16a.65.65,0,0,1-.16.13.81.81,0,0,1-.38.12.65.65,0,0,1-.51-.2,1.2,1.2,0,0,1-.68.27c-.39,0-.58-.25-.58-.74a2,2,0,0,1,.17-.72,2.68,2.68,0,0,1,.68-.95A1.3,1.3,0,0,1,54.15,16.71Zm.09.25a.8.8,0,0,0-.51.29,2.76,2.76,0,0,0-.53.78,2.38,2.38,0,0,0-.28.94c0,.25.1.37.28.37a.67.67,0,0,0,.45-.22.68.68,0,0,1-.13-.39c0-.23.11-.34.28-.34a.22.22,0,0,1,.17.07.17.17,0,0,1,.07.13v.13a5.18,5.18,0,0,0,.31-.57,1.86,1.86,0,0,0,.2-.8c0-.23-.11-.35-.31-.35Z" transform="translate(-0.14 0.04)"/><path class="cls-1" d="M10.36,16.86a7.07,7.07,0,0,0,1,3,.07.07,0,1,0,.12-.07,6.93,6.93,0,0,1-1-2.9.07.07,0,0,0-.14,0Z" transform="translate(-0.14 0.04)"/><path class="cls-1" d="M9.43,18.64c-.27.72-.33,1.79.5,2.15.08,0,.15-.09.07-.12-.77-.34-.68-1.33-.43-2,0-.09-.1-.12-.14,0Z" transform="translate(-0.14 0.04)"/><path class="cls-1" d="M14.66,17a7.3,7.3,0,0,1-.93,2.86.07.07,0,1,0,.12.07A7.29,7.29,0,0,0,14.79,17c0-.09-.12-.13-.13,0Z" transform="translate(-0.14 0.04)"/><path class="cls-1" d="M15.58,18.85a1.47,1.47,0,0,1-.39,1.91c-.07,0,0,.17.07.12a1.61,1.61,0,0,0,.44-2.1c0-.08-.16,0-.12.07Z" transform="translate(-0.14 0.04)"/><path class="cls-1" d="M6.86,15.42a2,2,0,0,0-.22,1,3.78,3.78,0,0,0,1.24,2.45c.06.07.16,0,.1-.1a3.61,3.61,0,0,1-1.2-2.4,1.85,1.85,0,0,1,.2-.92.07.07,0,1,0-.12-.07Z" transform="translate(-0.14 0.04)"/><path class="cls-1" d="M6.05,15.07a3,3,0,0,0-.58,1.2,2.77,2.77,0,0,0,.58,2.44c0,.07.15,0,.09-.1a2.63,2.63,0,0,1-.5-2.43,3,3,0,0,1,.5-1c.06-.07,0-.17-.09-.1Z" transform="translate(-0.14 0.04)"/><path class="cls-1" d="M4.55,15.83a3.45,3.45,0,0,0-.26,4c0,.07.17,0,.12-.07a3.35,3.35,0,0,1,.24-3.84c0-.06-.05-.16-.1-.09Z" transform="translate(-0.14 0.04)"/><path class="cls-1" d="M3.77,17.17A2,2,0,0,0,3.5,19c0,.08.16,0,.13,0a1.81,1.81,0,0,1,.24-1.67c.06-.07,0-.17-.1-.1Z" transform="translate(-0.14 0.04)"/><path class="cls-1" d="M4.37,13.13a3.73,3.73,0,0,0-1.85,3.2A5.75,5.75,0,0,0,3,18.6c0,.08.17,0,.14,0a4.44,4.44,0,0,1,.06-4.12,3.29,3.29,0,0,1,1.24-1.19c.08,0,0-.17-.08-.13Z" transform="translate(-0.14 0.04)"/><path class="cls-1" d="M2.31,13.68a6.55,6.55,0,0,0-.39.53,1.51,1.51,0,0,0-.33.78c0,.09.14.09.13,0a1.65,1.65,0,0,1,.35-.76c.11-.15.22-.31.34-.46s0-.16-.1-.09Z" transform="translate(-0.14 0.04)"/><path class="cls-1" d="M17.9,16a1.89,1.89,0,0,1,.16.91,3.82,3.82,0,0,1-1.16,2.39c-.06.06,0,.16.1.1a4.05,4.05,0,0,0,1.2-2.44,2,2,0,0,0-.18-1c0-.08-.16,0-.12.07Z" transform="translate(-0.14 0.04)"/><path class="cls-1" d="M18.72,15.6a2.7,2.7,0,0,1,0,3.45c-.06.07.07.14.12.07a2.87,2.87,0,0,0,.56-2.5,2.73,2.73,0,0,0-.57-1.11c-.06-.07-.16,0-.1.09Z" transform="translate(-0.14 0.04)"/><path class="cls-1" d="M20.17,16.34a3.21,3.21,0,0,1,.64,1.1,3.16,3.16,0,0,1-.34,2.77.07.07,0,1,0,.12.07,3.3,3.3,0,0,0-.32-4c-.06-.07-.16,0-.1.09Z" transform="translate(-0.14 0.04)"/><path class="cls-1" d="M20.94,17.55a2.36,2.36,0,0,1,.33,1.83c0,.09.12.13.14,0a2.55,2.55,0,0,0-.35-1.94c-.06-.07-.18,0-.12.07Z" transform="translate(-0.14 0.04)"/><path class="cls-1" d="M20.45,13.7a3.1,3.1,0,0,1,1.16,1.14A4.85,4.85,0,0,1,21.76,19c0,.09.1.12.13,0a5.34,5.34,0,0,0,.16-3.57,3.54,3.54,0,0,0-1.18-1.62,1.67,1.67,0,0,0-.35-.24c-.08,0-.15.08-.07.12Z" transform="translate(-0.14 0.04)"/><path class="cls-1" d="M22.31,14.22A2,2,0,0,1,23,15.29a.07.07,0,0,0,.13,0,2.11,2.11,0,0,0-.75-1.14c-.07-.06-.17,0-.1.1Z" transform="translate(-0.14 0.04)"/><path class="cls-1" d="M23.33,9.39l.85-.11c.09,0,.09-.15,0-.14l-.85.11c-.08,0-.08.15,0,.14Z" transform="translate(-0.14 0.04)"/><path class="cls-1" d="M22.78,8.63a1.47,1.47,0,0,1,1.38-.46c.09,0,.13-.12,0-.13a1.61,1.61,0,0,0-1.52.49c-.06.07,0,.16.1.1Z" transform="translate(-0.14 0.04)"/><path class="cls-1" d="M21.64,7.61A2.27,2.27,0,0,1,23,6.55c.09,0,.05-.15,0-.13a2.4,2.4,0,0,0-1.41,1.12c-.05.07.07.14.13.07Z" transform="translate(-0.14 0.04)"/><path class="cls-1" d="M20.24,6.07a1.19,1.19,0,0,1,1.48,0c.07,0,.14-.07.07-.12a1.32,1.32,0,0,0-1.65,0c-.06.06,0,.16.1.1Z" transform="translate(-0.14 0.04)"/><path class="cls-1" d="M20.31,5a2.78,2.78,0,0,1,3.25-.63c.08,0,.15-.08.07-.12a2.92,2.92,0,0,0-3.42.65c-.06.06,0,.16.1.1Z" transform="translate(-0.14 0.04)"/><path class="cls-1" d="M19.34,5.08l1.35-1.54c.06-.07,0-.17-.1-.1L19.24,5c0,.07,0,.17.1.1Z" transform="translate(-0.14 0.04)"/><path class="cls-1" d="M1.47,8.91.6,8.72a.07.07,0,0,0,0,.13l.86.2c.09,0,.13-.12,0-.14Z" transform="translate(-0.14 0.04)"/><path class="cls-1" d="M2.12,8.15A1.58,1.58,0,0,0,.57,7.66c-.09,0,0,.17,0,.14A1.43,1.43,0,0,1,2,8.25c.07.06.17,0,.1-.1Z" transform="translate(-0.14 0.04)"/><path class="cls-1" d="M3.22,7.15A2.06,2.06,0,0,0,1.82,6c-.08,0-.12.12,0,.14a1.92,1.92,0,0,1,1.3,1c0,.08.16,0,.13,0Z" transform="translate(-0.14 0.04)"/><path class="cls-1" d="M4.62,5.6c-.41-.53-1.16-.31-1.64,0-.08,0,0,.16.07.12.41-.25,1.11-.47,1.45,0,0,.07.17,0,.12-.07Z" transform="translate(-0.14 0.04)"/><path class="cls-1" d="M4.57,4.48a3,3,0,0,0-3.42-.62c-.08,0,0,.16.07.12a2.81,2.81,0,0,1,3.25.6c.07.06.16,0,.1-.1Z" transform="translate(-0.14 0.04)"/><path class="cls-1" d="M5.48,4.56,4.19,3c-.06-.07-.16,0-.1.1L5.38,4.66c.06.07.16,0,.1-.1Z" transform="translate(-0.14 0.04)"/><path class="cls-1" d="M6.72,4c-.17-.24-.36-.47-.55-.69a2.18,2.18,0,0,0-.93-.72c-.09,0-.13.11,0,.13a2.09,2.09,0,0,1,.91.73,7.42,7.42,0,0,1,.49.62c.05.07.18,0,.12-.07Z" transform="translate(-0.14 0.04)"/><path class="cls-1" d="M14,3.67a2.36,2.36,0,0,1-.08,1.44c0,.08.1.12.13,0a2.48,2.48,0,0,0,.09-1.5.07.07,0,0,0-.14,0Z" transform="translate(-0.14 0.04)"/><path class="cls-1" d="M13.41,3.48a1.8,1.8,0,0,1,0,1.54c0,.09.1.12.13,0a1.94,1.94,0,0,0-.05-1.65c0-.07-.18,0-.12.07Z" transform="translate(-0.14 0.04)"/><path class="cls-1" d="M12.87,3.33a1.13,1.13,0,0,1,.12,1c0,.09.12.12.13,0A1.25,1.25,0,0,0,13,3.23c-.06-.06-.16,0-.1.1Z" transform="translate(-0.14 0.04)"/><path class="cls-1" d="M12.13,3.86c.48.17.61.87.63,1.3,0,.09.15.09.14,0,0-.51-.19-1.23-.74-1.44-.08,0-.12.1,0,.14Z" transform="translate(-0.14 0.04)"/><path class="cls-1" d="M3.73,12.3a2.22,2.22,0,0,1,.2-1.1,1.8,1.8,0,0,1,2.15-.8s.11-.05.08-.1a2.38,2.38,0,0,1-.37-1.21C5.77,8,6.76,7.35,7.71,7c.09,0,0-.16,0-.13-1,.32-2,.94-2,2.07A2.59,2.59,0,0,0,6,10.37l.08-.1A2,2,0,0,0,3.86,11a2.36,2.36,0,0,0-.27,1.27c0,.09.15.09.14,0Z" transform="translate(-0.14 0.04)"/><path class="cls-1" d="M21.21,12.68a2.69,2.69,0,0,0-.35-1.3,1.88,1.88,0,0,0-2.19-.75l.07.1a2.18,2.18,0,0,0,.38-1.13,2.19,2.19,0,0,0-1.24-2c-.07,0-.15.07-.07.12A2.06,2.06,0,0,1,19,9.7a2.12,2.12,0,0,1-.36,1,.07.07,0,0,0,.08.1,1.74,1.74,0,0,1,2.1.8,2.57,2.57,0,0,1,.27,1.12.07.07,0,0,0,.14,0Z" transform="translate(-0.14 0.04)"/><path class="cls-1" d="M12.11,10.62a1.35,1.35,0,0,1,1.23.18.07.07,0,1,0,.07-.12,1.46,1.46,0,0,0-1.34-.19c-.08,0-.05.16,0,.13Z" transform="translate(-0.14 0.04)"/><path class="cls-1" d="M7.93,2.76a1.81,1.81,0,0,1,1.69-.1c.07,0,.15-.05.09-.11a1.54,1.54,0,0,0-1.63-.32c-.09,0-.05.17,0,.13a1.43,1.43,0,0,1,1.5.29l.08-.11a2,2,0,0,0-1.83.09c-.07.05,0,.18.07.13Z" transform="translate(-0.14 0.04)"/><path class="cls-1" d="M18.73,2.53a2.25,2.25,0,0,0-1.78,0l.07.12c.37-.29,1-.59,1.46-.3a.07.07,0,1,0,.07-.12,1.49,1.49,0,0,0-1.63.32c-.06,0,0,.14.07.12a2.11,2.11,0,0,1,1.67,0c.08,0,.15-.08.07-.12Z" transform="translate(-0.14 0.04)"/><path class="cls-1" d="M16.8,2.56a3,3,0,0,1,1.43-1.3l.26-.11s.21-.08.14-.1,0,.06.05.08a1.92,1.92,0,0,1,.21.46A2.2,2.2,0,0,1,19,3.14c0,.09.11.13.14,0A2.75,2.75,0,0,0,18.75,1a.06.06,0,0,0-.08,0,3.25,3.25,0,0,0-2,1.54c0,.08.08.15.12.07Z" transform="translate(-0.14 0.04)"/><path class="cls-1" d="M19.89,2.72a7.83,7.83,0,0,0-.41-1.24,2.64,2.64,0,0,0-1-1.43c-.56-.28-1.19.19-1.6.54a8.24,8.24,0,0,0-.76.8,2,2,0,0,0-.38.49s.07,0,0,0a.32.32,0,0,0-.14,0,2.65,2.65,0,0,0-.48-.07A1.59,1.59,0,0,0,14,2.1c-.07.06,0,.16.1.1A1.84,1.84,0,0,1,15.75,2a.07.07,0,0,0,.08,0A4.87,4.87,0,0,1,17.72.2c1-.42,1.51,1,1.77,1.69.1.29.19.57.27.87,0,.08.15.05.13,0Z" transform="translate(-0.14 0.04)"/><path class="cls-1" d="M15.13.64a2.38,2.38,0,0,0-1.6,1.52c0,.09.1.12.13,0A2.19,2.19,0,0,1,15.17.78c.09,0,.05-.15,0-.14Z" transform="translate(-0.14 0.04)"/><path class="cls-1" d="M13.32,1a1.54,1.54,0,0,0-.66,1.27.07.07,0,0,0,.14,0,1.39,1.39,0,0,1,.59-1.15c.07-.05,0-.17-.07-.12Z" transform="translate(-0.14 0.04)"/><path class="cls-1" d="M11.39.82a1.87,1.87,0,0,1,1.29.68c.06.07.15,0,.1-.1A2,2,0,0,0,11.39.68c-.09,0-.09.13,0,.14Z" transform="translate(-0.14 0.04)"/><path class="cls-1" d="M11.93,1.79a3.22,3.22,0,0,0-.82,0s-.37.07-.27.12-.08-.11-.11-.14A10,10,0,0,0,9.46.44C9.14.18,8.67-.21,8.26.06a3.55,3.55,0,0,0-1,1.39,13.14,13.14,0,0,0-.57,1.34c0,.08.1.12.13,0A10.18,10.18,0,0,1,7.88.7c.22-.33.5-.72.94-.53a4.34,4.34,0,0,1,1.19,1c.26.27.5.55.74.85a.08.08,0,0,0,.08,0,2,2,0,0,1,1.1-.09c.08,0,.08-.13,0-.14Z" transform="translate(-0.14 0.04)"/><path class="cls-1" d="M9.94,2.49A3.22,3.22,0,0,0,9.4,1.8a2.85,2.85,0,0,0-.59-.46c-.16-.09-.53-.31-.71-.25s-.13.1-.17.17a3.39,3.39,0,0,0-.34.5,1.7,1.7,0,0,0-.18,1.42c0,.08.17,0,.14,0a1.57,1.57,0,0,1,.19-1.36,3.58,3.58,0,0,1,.31-.45c.09-.12.07-.11.21-.07a2.85,2.85,0,0,1,1.56,1.3.07.07,0,1,0,.12-.07Z" transform="translate(-0.14 0.04)"/><path class="cls-1" d="M6.56,2.87c.24.11.48.22.72.36a1.15,1.15,0,0,1,.38.27A1.92,1.92,0,0,1,7.92,4c0,.09.17,0,.14,0A1.38,1.38,0,0,0,7.5,3.2a5.51,5.51,0,0,0-.87-.45c-.08,0-.15.08-.07.12Z" transform="translate(-0.14 0.04)"/><path class="cls-1" d="M20.05,2.67A2,2,0,0,0,18.57,4a.07.07,0,1,0,.13,0A1.87,1.87,0,0,1,20.09,2.8c.08,0,.05-.15,0-.13Z" transform="translate(-0.14 0.04)"/><path class="cls-1" d="M11.34,15.75c.24.68,1,.53,1.46.23a.07.07,0,1,0-.07-.12c-.39.25-1.05.44-1.25-.14,0-.09-.17-.05-.14,0Z" transform="translate(-0.14 0.04)"/><path class="cls-1" d="M22.86,10.5c-.3,0,.32.83.35.87A5.74,5.74,0,0,1,24,12.48a2.63,2.63,0,0,1-.13,2c0,.08.08.15.12.07a2.56,2.56,0,0,0,0-2.42c-.31-.44-.68-.84-.95-1.31,0,0-.07-.2-.11-.22s0,0-.06,0c.09,0,.09-.15,0-.14Z" transform="translate(-0.14 0.04)"/><path class="cls-1" d="M22.32,9.37a4.82,4.82,0,0,0,1.38.78,1.61,1.61,0,0,1,.79,1.07c0,.08.15,0,.13,0a1.88,1.88,0,0,0-.62-1,7.36,7.36,0,0,0-1-.49,3.65,3.65,0,0,1-.56-.41c-.07-.06-.16,0-.1.1Z" transform="translate(-0.14 0.04)"/><path class="cls-1" d="M2.33,8.88c-.17.13-.37.26-.55.38s-.55.24-.81.39a1.79,1.79,0,0,0-.83,1.16.07.07,0,0,0,.14,0,1.55,1.55,0,0,1,.36-.68,1.66,1.66,0,0,1,.69-.48A4.76,4.76,0,0,0,2.43,9c.07-.06,0-.15-.1-.1Z" transform="translate(-0.14 0.04)"/><path class="cls-1" d="M1.82,10.1a4.79,4.79,0,0,1-.35.72c-.15.25-.31.5-.48.74a3,3,0,0,0-.49.7,2,2,0,0,0,.31,1.85c0,.07.17,0,.12-.07a1.73,1.73,0,0,1-.06-2.11A6.53,6.53,0,0,0,2,10.14c0-.08-.1-.12-.13,0Z" transform="translate(-0.14 0.04)"/><path class="cls-1" d="M9.16,12.25a1,1,0,0,1-.3.63c-.07.06,0,.16.1.1a1.07,1.07,0,0,0,.34-.73c0-.08-.13-.08-.14,0Z" transform="translate(-0.14 0.04)"/><path class="cls-1" d="M12.4,13.25a2.46,2.46,0,0,0,1.35.75A2.14,2.14,0,0,0,15,13.85c.23-.1.42-.3.65-.38a1.33,1.33,0,0,1,.9,0c.08,0,.12-.1,0-.13a1.44,1.44,0,0,0-1.06,0c-.12.06-.23.18-.36.25a2.28,2.28,0,0,1-.45.2,2,2,0,0,1-.72.08,2.32,2.32,0,0,1-1.46-.74c-.06-.06-.16,0-.1.1Z" transform="translate(-0.14 0.04)"/><path class="cls-1" d="M10.88,13.43a2.67,2.67,0,0,0,.85,1c.7.49,1.38.12,1.86-.49.05-.07-.05-.17-.1-.1a1.49,1.49,0,0,1-1,.69,1.19,1.19,0,0,1-.81-.32,2.87,2.87,0,0,1-.66-.88c0-.08-.17,0-.12.07Z" transform="translate(-0.14 0.04)"/><ellipse class="cls-1" cx="10.92" cy="11.89" rx="0.08" ry="0.09"/><path class="cls-1" d="M11.07,12a.11.11,0,0,1-.11-.11.11.11,0,1,1,.21,0A.11.11,0,0,1,11.07,12Zm0-.17s-.05,0-.05.06a.06.06,0,0,0,.05.06s0,0,0-.06S11.09,11.8,11.07,11.8Z" transform="translate(-0.14 0.04)"/><ellipse class="cls-1" cx="10.43" cy="12.49" rx="0.08" ry="0.09" transform="translate(-3.72 4.26) rotate(-19.59)"/><path class="cls-1" d="M10.44,12.6a.13.13,0,0,1-.11-.08.11.11,0,0,1,.06-.14.14.14,0,0,1,.09,0,.18.18,0,0,1,0,.07h0a.11.11,0,0,1-.06.15Zm0-.17h0a.06.06,0,0,0,0,.07s0,.05.06,0a.05.05,0,0,0,0-.07h0l0,0Z" transform="translate(-0.14 0.04)"/><ellipse class="cls-1" cx="11.28" cy="12.57" rx="0.08" ry="0.09" transform="translate(-2.8 3.07) rotate(-13.72)"/><path class="cls-1" d="M11.28,12.69a.13.13,0,0,1-.11-.09.28.28,0,0,1,0-.09.18.18,0,0,1,.07,0,.08.08,0,0,1,.08,0,.13.13,0,0,1,.05.07h0a.12.12,0,0,1-.08.14Zm0-.18h0l0,0s0,0,0,0,0,.06.06.05,0,0,0-.07a.05.05,0,0,0,0,0Z" transform="translate(-0.14 0.04)"/><ellipse class="cls-1" cx="14.02" cy="12.52" rx="0.08" ry="0.09"/><path class="cls-1" d="M14.16,12.6a.11.11,0,0,1-.1-.11.11.11,0,1,1,.21,0A.11.11,0,0,1,14.16,12.6Zm0-.17a.06.06,0,0,0-.05.06.06.06,0,0,0,.05.06.06.06,0,0,0,.05-.06S14.19,12.43,14.16,12.43Z" transform="translate(-0.14 0.04)"/><ellipse class="cls-1" cx="13.53" cy="13.12" rx="0.08" ry="0.09" transform="translate(-3.76 5.33) rotate(-19.59)"/><path class="cls-1" d="M13.54,13.23h0a.13.13,0,0,1-.06-.07.11.11,0,0,1,.06-.14h.08a.13.13,0,0,1,.06.07h0a.11.11,0,0,1-.06.14Zm0-.17h0a.05.05,0,0,0,0,.07l0,0h0a.05.05,0,0,0,0-.07h0l0,0Z" transform="translate(-0.14 0.04)"/><ellipse class="cls-1" cx="14.37" cy="13.2" rx="0.08" ry="0.09" transform="translate(-2.86 3.82) rotate(-13.72)"/><path class="cls-1" d="M14.38,13.32l-.06,0a.18.18,0,0,1-.05-.07.13.13,0,0,1,0-.09.12.12,0,0,1,.07-.05.11.11,0,0,1,.12.09h0a.11.11,0,0,1-.07.14Zm0-.18h0l0,0a0,0,0,0,0,0,.05.05.05,0,0,0,0,0h0a.06.06,0,0,0,0-.07S14.39,13.14,14.37,13.14Z" transform="translate(-0.14 0.04)"/><path class="cls-1" d="M9.2,12.66a3.94,3.94,0,0,0,2.72.8,1.38,1.38,0,0,0,.53-.17c.13-.1.1-.32.13-.48s0-.07-.05-.08a1.58,1.58,0,0,1-.56-.56,3.56,3.56,0,0,1-.31-.48.55.55,0,0,1,.11-.45.67.67,0,0,1,.91,0,.08.08,0,0,0,.09,0,.77.77,0,0,1,1.09.15.69.69,0,0,1-.1.66,1.45,1.45,0,0,1-1.2.65.07.07,0,0,0,0,.14,1.63,1.63,0,0,0,1.3-.67c.17-.29.31-.74,0-1a.91.91,0,0,0-1-.12s-.12,0-.14.06,0,0,0,0a1.35,1.35,0,0,0-.26-.15c-.46-.19-1.16.11-1,.7a2.3,2.3,0,0,0,.33.54,1.66,1.66,0,0,0,.64.62l-.05-.08c0,.11,0,.23,0,.34s0,0,0,.05a1.4,1.4,0,0,1-.49.15,3.74,3.74,0,0,1-2.61-.78.07.07,0,1,0-.07.12Z" transform="translate(-0.14 0.04)"/><path class="cls-1" d="M14,10.91a4.56,4.56,0,0,1,2,1c.07.07.19-.05.12-.12A4.9,4.9,0,0,0,14,10.74a.09.09,0,0,0,0,.17Z" transform="translate(-0.14 0.04)"/><path class="cls-1" d="M15.65,9.63c-.71,0-1.24,1-1.32,1.18,1.2,1,1.68.75,1.68.74a5.56,5.56,0,0,0,.77-.75h0c.11-.05.18-.11.18-.17s-.11-.15-.15-.17h0C16.44,9.88,16.05,9.6,15.65,9.63Zm-.3,1a.14.14,0,0,1-.15-.13.14.14,0,0,1,.15-.14.14.14,0,1,1,0,.27Zm.44.23a.29.29,0,1,1,.29-.29A.29.29,0,0,1,15.79,10.9Z" transform="translate(-0.14 0.04)"/><path class="cls-1" d="M11.25,10.48a4.89,4.89,0,0,0-2.11,1c-.07.08,0,.2.12.12a4.67,4.67,0,0,1,2-1,.08.08,0,0,0-.05-.16Z" transform="translate(-0.14 0.04)"/><path class="cls-1" d="M11,10.54S10.44,9.35,9.64,9.3c-.42,0-.83.26-1.2.85,0,0-.18.1-.18.22s.08.15.22.21a5.55,5.55,0,0,0,.77.76.5.5,0,0,0,.18,0A2.83,2.83,0,0,0,11,10.58v0Zm-1.52.09a.29.29,0,1,1,.29-.29A.29.29,0,0,1,9.5,10.63Zm.44-.22a.14.14,0,1,1,.15-.14A.15.15,0,0,1,9.94,10.41Z" transform="translate(-0.14 0.04)"/><path class="cls-1" d="M13.82,11.19a.92.92,0,0,0-1-.12.46.46,0,0,0-.14.07h0A.85.85,0,0,0,12.5,11c-.47-.19-1.16.1-1,.7a1.87,1.87,0,0,0,.33.53,1.66,1.66,0,0,0,.63.63.06.06,0,0,0,.06,0s0,0,0,0a1.57,1.57,0,0,0,1.3-.67A.78.78,0,0,0,13.82,11.19Zm-.43.35c-.08,0-.14-.09-.12-.11s.08,0,.16,0,.14.08.13.11S13.47,11.57,13.39,11.54Z" transform="translate(-0.14 0.04)"/></g></g></svg>