<?xml version="1.0" encoding="utf-8"?>
<!-- Generator: Adobe Illustrator 24.1.0, SVG Export Plug-In . SVG Version: 6.00 Build 0)  -->
<svg version="1.1" id="Capa_1" xmlns="http://www.w3.org/2000/svg" xmlns:xlink="http://www.w3.org/1999/xlink" x="0px" y="0px"
	 viewBox="0 0 304 305.4" enable-background="new 0 0 304 305.4" xml:space="preserve">
<g>
	<path fill="none" d="M152.6,303.5L152.6,303.5c-25.3,0-50.2-6.3-72.4-18.4L5.4,304.7H304V152.2C304,235.6,236,303.5,152.6,303.5z"
		/>
	<path fill="none" d="M1.2,152.1C1.3,68.6,69.2,0.7,152.6,0.7H0v304h0.4l21.1-77C8.2,204.7,1.2,178.6,1.2,152.1z"/>
	<path fill="none" d="M304,152V0.7H152.6C236.2,0.7,304,68.4,304,152z"/>
	<path fill="none" d="M152.6,26.3C83.2,26.3,26.8,82.6,26.8,152c0,23.7,6.7,46.9,19.2,66.9l3,4.7l-12.7,46.4l47.6-12.4l4.6,2.7
		c19.4,11.5,41.5,17.5,64,17.5h0c69.3,0,125.8-56.4,125.8-125.8C278.4,82.7,222.1,26.4,152.6,26.3z M226.6,206.2
		c-3.2,8.9-18.3,16.9-25.5,18c-7.9,1.4-16.1,0.8-23.8-1.5c-7.3-2.3-14.5-5-21.6-8c-37.9-16.4-62.7-54.6-64.6-57.1
		c-1.9-2.5-15.4-20.5-15.4-39.1S85.5,90.7,89,86.9c2.5-2.9,6.2-4.6,10-4.7c2.5,0,4.9,0,7.3,0.1c2.3,0.1,5.4-0.9,8.5,6.5
		c3.2,7.6,10.7,26.2,11.7,28.1c1.2,2,1.3,4.5,0.3,6.6c-1,2.3-2.2,4.4-3.8,6.3c-1.9,2.2-4,4.9-5.7,6.6c-1.9,1.9-3.8,3.9-1.7,7.7
		c2.2,3.8,9.8,16.2,21,26.2c14.4,12.9,26.6,16.9,30.4,18.8c3.8,1.9,6,1.6,8.2-1c2.2-2.5,9.5-11,12-14.8c2.5-3.8,5-3.2,8.5-1.9
		c3.5,1.3,22.1,10.4,25.8,12.3c3.8,1.9,6.3,2.8,7.3,4.4C229.8,189.7,229.8,197.3,226.6,206.2z"/>
</g>
<path fill="#FFFFFF" d="M152.6,0.7C69.2,0.7,1.3,68.6,1.2,152.1c0,26.6,6.9,52.7,20.2,75.7l-21.1,77h5l74.9-19.6
	c22.2,12.1,47.1,18.4,72.3,18.4h0.1c83.4,0,151.3-67.9,151.3-151.3V152C304,68.4,236.2,0.7,152.6,0.7z M226.6,206.1
	c-3.2,8.9-18.3,16.9-25.5,18c-7.9,1.4-16.1,0.8-23.8-1.5c-7.3-2.3-14.5-5-21.6-8c-37.9-16.4-62.7-54.6-64.6-57.1
	c-1.9-2.5-15.4-20.5-15.4-39.1S85.5,90.7,89,86.9c2.5-2.9,6.2-4.6,10-4.7c2.5,0,4.9,0,7.3,0.1c2.3,0.1,5.4-0.9,8.5,6.5
	c3.2,7.6,10.7,26.2,11.7,28.1c1.2,2,1.3,4.5,0.3,6.6c-1,2.3-2.2,4.4-3.8,6.3c-1.9,2.2-4,4.9-5.7,6.6c-1.9,1.9-3.8,3.9-1.7,7.7
	c2.2,3.8,9.8,16.2,21,26.2c14.4,12.9,26.6,16.9,30.4,18.8c3.8,1.9,6,1.6,8.2-1c2.2-2.5,9.5-11,12-14.8c2.5-3.8,5-3.2,8.5-1.9
	c3.5,1.3,22.1,10.4,25.8,12.3c3.8,1.9,6.3,2.8,7.3,4.4C229.8,189.7,229.8,197.3,226.6,206.1z"/>
</svg>
